<svg width="13" height="13" viewBox="0 0 11 13" fill="none" xmlns="http://www.w3.org/2000/svg">
<g id="&#228;&#184;&#138;&#228;&#188;&#160;&#230;&#150;&#135;&#228;&#187;&#182;-&#230;&#150;&#135;&#228;&#187;&#182;&#229;&#155;&#190;&#230;&#160;&#135;">
<path id="Union" d="M9.5625 4.875H6.3125V1.625H1.4375V11.375H9.5625V4.875ZM9.23262 4.0625L7.125 1.95487V4.0625H9.23262ZM1.03125 0.8125H7.125L10.375 4.0625V11.7812C10.375 11.8999 10.3369 11.9972 10.2608 12.0733C10.1847 12.1494 10.0874 12.1875 9.96875 12.1875H1.03125C0.912625 12.1875 0.81526 12.1494 0.739156 12.0733C0.663052 11.9972 0.625 11.8999 0.625 11.7812V1.21875C0.625 1.10013 0.663052 1.00276 0.739156 0.926656C0.81526 0.850552 0.912625 0.8125 1.03125 0.8125ZM3.0625 6.5H7.9375V7.3125H3.0625V6.5ZM3.0625 4.0625H5.09375V4.875H3.0625V4.0625ZM3.0625 8.9375H7.9375V9.75H3.0625V8.9375Z" fill="#909399"/>
</g>
</svg>
