<svg width="12" height="12" viewBox="0 0 12 12" fill="none" xmlns="http://www.w3.org/2000/svg">
<g id="&#232;&#190;&#147;&#229;&#133;&#165;&#230;&#161;&#134;-&#230;&#143;&#144;&#231;&#164;&#186;&#232;&#173;&#166;&#229;&#145;&#138;">
<g id="Union">
<path d="M5.4375 8.43753C5.4375 8.12687 5.68934 7.87503 6 7.87503C6.31066 7.87503 6.5625 8.12687 6.5625 8.43754C6.5625 8.7482 6.31066 9.00003 6 9.00003C5.68934 9.00003 5.4375 8.74819 5.4375 8.43753Z" fill="#F56C6C"/>
<path d="M6 7.04886C6.20711 7.04886 6.375 6.88097 6.375 6.67386L6.375 3.37386C6.375 3.16676 6.20711 2.99886 6 2.99886C5.79289 2.99886 5.625 3.16676 5.625 3.37386L5.625 6.67386C5.625 6.88097 5.79289 7.04886 6 7.04886Z" fill="#F56C6C"/>
<path fill-rule="evenodd" clip-rule="evenodd" d="M11.25 6C11.25 3.10051 8.8995 0.75 6 0.75C4.60761 0.75 3.27226 1.30312 2.28769 2.28769C1.30312 3.27226 0.75 4.60761 0.75 6C0.75 8.89949 3.1005 11.25 6 11.25C8.89949 11.25 11.25 8.8995 11.25 6ZM10.5 5.99945C10.5 3.51417 8.48528 1.49945 6 1.49945C4.80653 1.49945 3.66193 1.97356 2.81802 2.81747C1.97411 3.66138 1.5 4.80598 1.5 5.99945C1.5 8.48473 3.51472 10.4995 6 10.4995C8.48528 10.4995 10.5 8.48473 10.5 5.99945Z" fill="#F56C6C"/>
</g>
</g>
</svg>
