<?xml version="1.0" encoding="UTF-8"?>
<svg width="22px" height="22px" viewBox="0 0 22 22" version="1.1" xmlns="http://www.w3.org/2000/svg" xmlns:xlink="http://www.w3.org/1999/xlink">
    <title>头像更换</title>
    <g id="页面-1" stroke="none" stroke-width="1" fill="none" fill-rule="evenodd">
        <g id="1-1.个人信息收集管理-收集流水" transform="translate(-1310.000000, -12.000000)" fill="#FFFFFF" fill-rule="nonzero">
            <g id="头像更换" transform="translate(1310.000000, 12.000000)">
                <rect id="矩形" opacity="0" x="0" y="0.000475751066" width="21.9995242" height="21.9995242"></rect>
                <path d="M21.9759424,10.9940563 C21.9823577,16.5371098 17.858749,21.2168167 12.3589489,21.9079618 C6.85914869,22.5991069 1.70587073,19.0852014 0.340591744,13.7129117 C-1.02468724,8.34062199 1.82568188,2.79272136 6.98815747,0.774224599 C9.55551686,-0.258074866 12.4225235,-0.258074866 14.9898829,0.774224599 C19.200613,2.41754276 21.9735132,6.47397607 21.9759424,10.9940134 M6.76356467,8.67882124 C6.72781304,10.404344 7.61386684,12.0182757 9.0888972,12.9143742 C10.2396954,13.5854249 11.6594383,13.5983743 12.8222852,12.9484262 C14.3344389,12.0643031 15.2486225,10.4300614 15.210673,8.67882124 C15.3880298,7.05846481 14.6234343,5.47933395 13.2423272,4.61356636 C11.8612201,3.74779877 10.1067228,3.74779877 8.72561572,4.61356636 C7.3445086,5.47933395 6.57991309,7.05846481 6.75726989,8.67882124 M11.0293884,21.2592711 C14.1144642,21.2619883 17.0356753,19.8709418 18.9781345,17.4741623 C18.7560768,15.6522622 16.9808613,14.1003505 14.4675446,13.3269297 C12.4778189,15.1755771 9.39035445,15.1473292 7.43478648,13.2625854 C4.98963819,13.9603398 3.19927652,15.38352 2.77913717,17.0893425 C4.70749721,19.7147409 7.7719154,21.2635839 11.0294099,21.2592711" id="形状"></path>
            </g>
        </g>
    </g>
</svg>