<?xml version="1.0" encoding="UTF-8"?>
<svg width="112px" height="30px" viewBox="0 0 112 30" version="1.1" xmlns="http://www.w3.org/2000/svg" xmlns:xlink="http://www.w3.org/1999/xlink">
    <title>华西logo</title>
    <defs>
        <polygon id="path-1" points="0 0 26.4211564 0 26.4211564 29.1656556 0 29.1656556"></polygon>
    </defs>
    <g id="页面-1" stroke="none" stroke-width="1" fill="none" fill-rule="evenodd">
        <g id="1-3-1.工作管理-合同维护" transform="translate(-28.000000, -8.000000)">
            <g id="华西logo" transform="translate(28.000000, 8.417172)">
                <g id="编组">
                    <mask id="mask-2" fill="white">
                        <use xlink:href="#path-1"></use>
                    </mask>
                    <g id="Clip-2"></g>
                    <path d="M9.70380979,14.136088 C9.69898783,14.2359491 9.69121049,14.3233665 9.69121049,14.4109394 C9.6905883,18.0017399 9.69012166,21.5925404 9.69167713,25.1833409 C9.69198822,25.8045953 9.78438309,26.4090506 10.0567457,26.9760191 C10.4376801,27.7688417 11.0749558,28.2035954 11.9422854,28.3015899 C12.1007877,28.3194778 12.1698506,28.363342 12.1603622,28.5296217 C12.1490073,28.7271663 12.1575624,28.9259552 12.1575624,29.1603644 L11.8425799,29.1603644 C8.00165991,29.1603644 4.16073996,29.1580312 0.319975557,29.1656582 C0.0717226821,29.1661197 -0.00931726015,29.1039009 0.000793289262,28.8500483 C0.0199255597,28.373297 0.00514860286,28.3726749 0.446901839,28.2721915 C1.52390867,28.0273607 2.19244931,27.3118449 2.38719404,26.156598 C2.45314594,25.7653975 2.48861063,25.3645531 2.49032165,24.9679084 C2.49965446,22.673747 2.49809899,20.3797411 2.48954391,18.0855797 C2.48876618,17.8724804 2.55456252,17.7719971 2.74619632,17.678669 C6.53874118,15.830305 10.1290751,13.655448 13.4464241,11.0417932 C17.3364969,7.97705239 20.6838665,4.39791789 23.5843498,0.393984779 C23.6837442,0.2567924 23.7862497,0.121777679 23.9470852,-1.5554691e-05 L23.9470852,0.339076718 C23.9470852,8.53624354 23.9473963,16.7334104 23.9463074,24.9304216 C23.9463074,25.5308327 23.9758613,26.1261108 24.1880273,26.6963458 C24.5389412,27.6394267 25.2031265,28.194107 26.2152703,28.3039231 C26.3586845,28.3193223 26.4291473,28.3580534 26.4204366,28.5153114 C26.4093928,28.7136337 26.4177923,28.9130448 26.4177923,29.1360991 L14.2868441,29.1360991 L14.2868441,28.346543 C14.5002544,28.3047008 14.7164646,28.2809022 14.9213199,28.2193056 C16.0155925,27.8909461 16.4912549,27.0623476 16.6651564,26.0114727 C16.7180423,25.6918238 16.7297083,25.362531 16.730175,25.0375935 C16.7345303,21.5010788 16.7329748,17.9647197 16.7329748,14.4283606 C16.7329748,14.3389212 16.7329748,14.2493261 16.7329748,14.136088 L9.70380979,14.136088 Z" id="Fill-1" fill="#FFFFFF" mask="url(#mask-2)"></path>
                </g>
                <path d="M62.5748125,6.61649908 L64.1203266,6.61649908 L64.1203266,3.3517249 L62.5748125,3.3517249 L62.5748125,6.61649908 Z M58.7273596,7.02994278 L58.7273596,14.0474418 C58.7849119,14.0227098 58.8177323,14.0113549 58.8477529,13.994867 C58.9032832,13.9645353 58.9581912,13.9328037 59.0113883,13.8985834 C59.7908338,13.3961669 60.2411422,12.6462752 60.2893617,11.7598133 C60.3741348,10.1979668 60.3408477,8.62974279 60.3564024,7.0641631 C60.3564024,7.05731904 60.345203,7.05047497 60.3271596,7.02994278 L58.7273596,7.02994278 Z M66.3667352,13.2995722 L68.0450864,13.2995722 L68.0450864,7.03694239 L66.3667352,7.03694239 L66.3667352,13.2995722 Z M68.0492862,13.7386812 C67.9200267,13.7386812 67.821721,13.7386812 67.7232598,13.7386812 C66.7425365,13.7386812 65.7618132,13.7399256 64.7809344,13.738059 C64.277429,13.7369702 64.1360369,13.5927782 64.1360369,13.0886506 C64.1357258,11.1751125 64.1358813,9.26157436 64.1358813,7.34803622 C64.1358813,7.24335315 64.1358813,7.13867007 64.1358813,7.03507583 L62.558169,7.03507583 L62.558169,7.34710294 C62.558169,8.390045 62.5603466,9.43298706 62.556458,10.4757736 C62.5555247,10.7019388 62.5521027,10.9309038 62.5164824,11.1533359 C62.344292,12.2286317 61.7362591,13.0251875 60.8774846,13.6528193 C60.2867174,14.084462 59.6290651,14.3832676 58.9373479,14.6153436 C58.8503972,14.6445864 58.7219154,14.7337148 58.7191156,14.7996667 C58.6998278,15.2491973 58.7090051,15.6999722 58.7090051,16.1586801 L68.0492862,16.1586801 L68.0492862,13.7386812 Z M71.372546,7.13851453 C71.1368924,7.34056997 70.9337481,7.53360369 70.7103828,7.69957225 C70.5476807,7.82058775 70.4947947,7.95466919 70.4952614,8.15641353 C70.502261,11.1762013 70.5000833,14.1959891 70.5000833,17.2157769 L70.5000833,17.5595356 L68.0727737,17.5595356 L68.0727737,16.5757013 L58.7135159,16.5757013 L58.7135159,17.5100717 L56.2897839,17.5100717 L56.2897839,5.54540303 C56.938259,5.83814233 57.5694684,6.10770513 58.1860563,6.40713294 C58.5379034,6.578079 58.8899061,6.66845175 59.2825065,6.64387534 C59.6331093,6.62209877 59.9860452,6.63936448 60.3526693,6.63936448 L60.3526693,3.33803678 L55.1038942,3.33803678 L55.1038942,2.95912449 C55.2216432,2.95912449 55.3364369,2.95912449 55.4510749,2.95912449 C59.8280096,2.95912449 64.2049442,2.95756902 68.5818788,2.9637909 C68.8001111,2.96410199 68.9528582,2.90794956 69.0972057,2.74120327 C69.4227654,2.36493528 69.7688573,2.00639964 70.1236598,1.62204322 C70.7399367,2.0715738 71.3484362,2.5102161 71.9480696,2.96052442 C72.0026665,3.0015888 72.032376,3.12369313 72.0161991,3.19524471 C72.0035998,3.25077496 71.9070052,3.30599411 71.8376312,3.32512638 C71.7528582,3.34861397 71.6575079,3.33617021 71.5668241,3.33617021 C69.9413588,3.33648131 68.3158936,3.33648131 66.6904283,3.33648131 L66.3706239,3.33648131 L66.3706239,6.63532026 C66.9172157,6.63532026 67.4678518,6.64014221 68.0181768,6.62878729 C68.0816399,6.62754291 68.1503916,6.54323649 68.204522,6.48583968 C68.5590134,6.10972724 68.9100828,5.73050386 69.2841731,5.32872618 C69.9786901,5.93053719 70.6660519,6.52628187 71.372546,7.13851453 L71.372546,7.13851453 Z" id="Fill-3" fill="#FFFFFF"></path>
                <path d="M102.028307,7.94248986 L105.161333,7.94248986 C105.012475,7.26399422 104.866416,6.59872007 104.717091,5.91866896 C104.449551,5.91866896 104.164744,5.94900061 103.889271,5.9115138 C103.459494,5.85318371 103.205953,6.00904172 103.034851,6.40521971 C102.914458,6.68395978 102.719558,6.93159047 102.550167,7.18793178 C102.387776,7.43369591 102.21543,7.67277151 102.028307,7.94248986 M106.336646,10.0422177 C106.023063,9.49391478 105.723946,8.95930004 105.408031,8.4346403 C105.371633,8.37413255 105.242684,8.34302317 105.156356,8.34240098 C104.240496,8.33602355 103.323391,8.36526637 102.409086,8.32762402 C101.915536,8.30724738 101.537401,8.3968424 101.269705,8.8451286 C101.151489,9.04298428 100.957367,9.19573135 100.798398,9.3696328 C100.495392,9.70110327 100.193009,10.0331959 99.8965369,10.358289 C99.9411788,10.358289 100.036374,10.358289 100.131724,10.358289 C101.972622,10.358289 103.813675,10.3505116 105.654417,10.3655997 C105.972977,10.368244 106.187321,10.2598278 106.336646,10.0422177 M104.848373,2.08225987 C104.422174,3.26737181 104.016975,4.39368702 103.60462,5.54022332 C103.872005,5.54022332 104.168011,5.54022332 104.463861,5.54022332 C105.044984,5.54022332 105.626574,5.55033387 106.207075,5.53260152 C106.343023,5.52840176 106.503081,5.46011666 106.605275,5.36896617 C106.956345,5.05585023 107.286726,4.71940226 107.638107,4.37922115 C107.823052,4.5027254 108.021841,4.63571802 108.22063,4.76871063 C107.677616,3.80167546 106.909369,3.05209488 105.960689,2.37639909 C106.098659,2.32895728 106.187632,2.26393867 106.262139,2.2776268 C108.276782,2.647984 109.977843,3.57115494 111.301548,5.15151158 C111.306214,5.15711127 111.30357,5.16862174 111.307147,5.20797511 C110.585565,5.64475085 109.852473,6.08868174 109.121247,6.53136826 C109.09947,6.50694739 109.079871,6.49543692 109.078316,6.48174879 C109.016408,5.95382257 108.68276,5.88958169 108.221252,5.90855841 C107.359989,5.94371202 106.496237,5.91866896 105.633574,5.91866896 L105.305992,5.91866896 C105.67386,6.68209322 106.143145,7.31890228 106.702803,7.89084829 C106.750401,7.93953447 106.848084,7.95773346 106.922902,7.95882229 C107.349723,7.96504416 107.776855,7.97064385 108.203053,7.95524471 C108.305092,7.95166713 108.427663,7.89007055 108.50077,7.81587467 C108.914369,7.39652019 109.315836,6.9651886 109.74359,6.51441364 C109.878449,6.61054164 110.008642,6.7032476 110.138835,6.79595356 C110.656339,7.16382201 111.177266,7.52702405 111.687615,7.90438087 C111.767877,7.96364424 111.800387,8.08714849 111.854984,8.18109883 C111.751545,8.23351814 111.648573,8.33073496 111.544979,8.33151269 C110.210075,8.34177879 108.875171,8.33835676 107.540268,8.33835676 C107.443051,8.33835676 107.345679,8.33835676 107.170533,8.33835676 C108.593631,9.56811066 110.189387,10.2217188 111.999953,10.4589278 C111.647795,11.3035476 111.307925,12.1189245 110.9525,12.9716327 C110.559433,12.8344403 110.171966,12.717469 109.799431,12.5639442 C109.432963,12.4129082 109.081893,12.224852 108.693493,12.0385067 C108.656784,12.6000311 108.630185,13.1475562 108.58321,13.6930593 C108.522702,14.3969091 108.451462,15.1002922 108.137412,15.7504783 C107.57651,16.9121027 106.346134,17.5985312 105.12198,17.4205855 C104.941234,16.0584612 103.993487,15.4191634 102.804486,15.0167635 C102.628563,14.9573446 102.469905,14.9063252 102.564166,14.6588501 C103.228974,14.6588501 103.89907,14.661961 104.569011,14.656828 C104.748978,14.655428 104.936879,14.6572946 105.107047,14.6086084 C105.643373,14.4549281 105.85865,14.038529 105.907181,13.5256908 C105.991487,12.632696 106.057595,11.7381457 106.130235,10.844062 C106.132257,10.8185523 106.122302,10.7921093 106.115302,10.7510449 L103.646773,10.7510449 C103.069538,13.2323293 101.651262,15.0887817 99.389765,16.2843153 C98.2690495,16.8769491 97.0694717,17.2183745 95.7865207,17.2885262 C97.0559391,16.5944759 98.1783656,15.732746 99.0811599,14.6048753 C99.9845764,13.4762269 100.595409,12.211786 100.876638,10.7398456 C100.352756,10.7398456 99.8588945,10.7322238 99.3658108,10.7470007 C99.2815044,10.7494895 99.1948647,10.8407955 99.1180246,10.9019254 C98.033707,11.7620999 96.8671052,12.4894373 95.6109083,13.0725826 C95.2844153,13.2242409 95.2844153,13.2240853 94.9047253,13.0232743 C96.6445175,11.7375235 98.1122582,10.2181412 99.2734159,8.34706739 L95.1041364,8.34706739 L95.1041364,7.96193323 L95.4009199,7.96193323 C96.6904039,7.96193323 97.9798878,7.95851119 99.2693717,7.9658219 C99.4448286,7.96675518 99.5498228,7.92413533 99.6293073,7.75878896 C99.9141137,7.16584412 100.213541,6.57989889 100.533813,5.93826787 C100.368466,5.92909061 100.274983,5.91960224 100.181499,5.91929115 C99.5821765,5.91789123 98.9823876,5.90700294 98.3836876,5.92613521 C98.2161635,5.93142381 98.0291962,5.99410922 97.8890484,6.08728182 C97.0766269,6.62671852 96.2170746,7.0636498 95.2898595,7.37132159 C95.1028921,7.43338481 94.9958758,7.40320871 94.9157691,7.20239764 C96.52008,5.90700294 97.6294406,4.27329371 98.1236131,2.21805233 C98.9778768,2.50488084 99.8064752,2.78299872 100.661517,3.06998278 C100.132657,4.00730848 99.4599167,4.79235376 98.5961647,5.54022332 C98.8024199,5.54022332 98.9295017,5.54022332 99.0565835,5.54022332 C99.5014477,5.54022332 99.9467785,5.52995722 100.391332,5.54488973 C100.588098,5.5514227 100.678471,5.48671518 100.740068,5.29928115 C101.090982,4.22989612 101.356811,3.14324538 101.46025,2.02019666 C101.467716,1.93946781 101.486071,1.85982779 101.505359,1.74301205 C102.588587,1.85282818 103.666216,1.96217766 104.848373,2.08225987" id="Fill-5" fill="#FFFFFF"></path>
                <path d="M2.49590578,16.6201878 C2.49590578,12.7032054 2.49948336,8.78622299 2.49077273,4.86908505 C2.48968391,4.4458419 2.45779679,4.01388812 2.36991278,3.60091106 C2.09988334,2.33087051 1.39758902,1.71257152 0.0356202433,1.50631632 L0.0356202433,0.72484862 L12.1367035,0.72484862 L12.1367035,1.50118327 C11.93947,1.53960336 11.7515694,1.56511305 11.569735,1.61379923 C10.5381479,1.88942837 10.0158213,2.62656519 9.80676629,3.6166213 C9.72883729,3.98573413 9.69555025,4.37055719 9.69430587,4.74853619 C9.68481751,7.38692295 9.68652853,10.0256208 9.69415032,12.6641631 C9.69477251,12.8704183 9.63053164,12.985523 9.46051886,13.1006277 C7.28535081,14.573657 4.9597689,15.7779012 2.60883284,16.9373479 C2.58612299,16.9485473 2.55983556,16.9532137 2.49590578,16.9732793 L2.49590578,16.6201878 Z" id="Fill-6" fill="#FFFFFF"></path>
                <path d="M79.6050375,17.2527193 L79.6050375,16.883762 L82.3401744,16.883762 L82.3401744,6.75656908 L84.7763502,6.75656908 L84.7763502,16.8624521 L86.3375746,16.8624521 L86.3375746,3.67798456 L81.19986,3.67798456 L81.19986,3.29222821 L81.551396,3.29222821 C84.0119927,3.29222821 86.4725893,3.28896172 88.9331859,3.2975168 C89.1725726,3.29829454 89.3382301,3.2298539 89.495488,3.05190823 C89.8126482,2.69321704 90.1514294,2.35334704 90.4975212,1.98858952 C91.1164424,2.42754291 91.7233865,2.85296372 92.3216199,3.29036165 C92.3766835,3.33049275 92.4070152,3.45306372 92.3914605,3.52508194 C92.3793278,3.58076774 92.2833554,3.63489806 92.214137,3.65729682 C92.1394745,3.68140659 92.0525237,3.67020721 91.9708616,3.67020721 C91.0266919,3.6708294 90.0823665,3.67067385 89.1380412,3.67067385 L88.8204144,3.67067385 L88.8204144,9.78864508 C88.9658508,9.70729404 89.0882662,9.66529637 89.175528,9.58503416 C89.535308,9.25465252 89.8843553,8.9127604 90.2554903,8.5576468 C90.7994378,8.93049275 91.3688951,9.31578246 91.9301083,9.71273818 C91.9881273,9.75380257 92.035258,9.87450697 92.0179923,9.93968113 C92.00026,10.0062552 91.9042875,10.0712738 91.8286917,10.0978723 C91.7471852,10.1266485 91.6495017,10.1128048 91.5589734,10.1129604 C90.6522904,10.1135826 89.7456075,10.113427 88.8183923,10.113427 L88.8183923,16.8528082 C89.0616677,16.9103605 89.2604566,16.8842287 89.46049,16.6737737 C89.7970935,16.3195934 90.1760058,16.0055441 90.5721838,15.6424976 C90.8296139,15.8210655 91.154707,16.046453 91.4796445,16.2724626 C91.7474963,16.4589634 92.0203255,16.6390867 92.2790001,16.8378757 C92.3449519,16.888584 92.4174368,17.0204878 92.3941048,17.0764846 C92.361751,17.153947 92.2449353,17.2013888 92.1573624,17.2486751 C92.1220532,17.2676518 92.068234,17.2527193 92.0228143,17.2527193 C87.9642842,17.2527193 83.9055986,17.2527193 79.8470685,17.2527193 C79.7759836,17.2527193 79.7048986,17.2527193 79.6050375,17.2527193" id="Fill-7" fill="#FFFFFF"></path>
                <path d="M49.530275,2.24629965 C50.3182757,2.76318205 51.0900994,3.2693317 51.9053208,3.80394645 C51.66049,3.9828254 51.4414799,4.14957169 51.2156258,4.30651853 C49.8311027,5.26857619 48.3431409,6.03028943 46.7497183,6.58248097 C46.5615066,6.64781068 46.4983545,6.73725015 46.5103316,6.92935059 C46.5286862,7.22768957 46.5154647,7.52789512 46.5282195,7.82670074 C46.5405077,8.11664019 46.6403689,8.22272318 46.9312416,8.22458975 C47.8573679,8.23065607 48.784272,8.24449975 49.7096206,8.21696795 C50.3938715,8.19674685 50.6632787,7.88051997 50.6653008,7.19751347 C50.6662341,6.8809755 50.6654564,6.56459308 50.6654564,6.23732237 C50.8370246,6.20201322 50.9449742,6.21601244 50.9280196,6.42024554 C50.884622,6.94319427 51.0978768,7.33035054 51.5036987,7.66570968 C52.0215144,8.09377479 52.1498406,8.56430421 51.9482518,9.03032276 C51.7737281,9.43381145 51.4668341,9.71970668 51.0608566,9.86420977 C50.7231643,9.98444753 50.3635398,10.1063963 50.0115371,10.1127737 C48.4504683,10.1404611 46.8886217,10.1305061 45.3270863,10.1230398 C45.1318749,10.121951 44.9318416,10.0707761 44.7428521,10.0138459 C44.2751225,9.87307594 44.0715116,9.60569079 44.0640453,9.11976224 C44.0551792,8.54066107 44.0620232,7.96124882 44.0620232,7.33657241 C43.8346136,7.36985945 43.6350469,7.4025243 43.4343914,7.428034 C42.9218643,7.4933637 42.4088706,7.55589356 41.8960324,7.61857897 C41.7527737,7.63615577 41.6158925,7.63864452 41.5905383,7.43394478 C42.0644898,7.24806622 42.5473074,7.0702761 43.0203255,6.86930948 C43.3679729,6.72153991 43.8223254,6.62541192 44.0083595,6.35491584 C44.17915,6.10619632 44.0590678,5.65511027 44.0600011,5.2931526 C44.0623343,4.34991612 44.0607788,3.40683518 44.0607788,2.46359869 C44.0607788,2.36529304 44.0607788,2.26698739 44.0607788,2.15079384 L46.5044209,2.15079384 L46.5044209,4.93212822 C47.6553125,4.13821677 48.6232809,3.23308927 49.530275,2.24629965" id="Fill-8" fill="#FFFFFF"></path>
                <path d="M77.0965013,8.37836342 L75.4760136,8.37836342 L75.4760136,8.0089395 C75.9449875,8.0089395 76.405873,8.02169435 76.865203,8.00100661 C76.9992845,7.99509583 77.1604311,7.92556636 77.2553147,7.83130493 C77.6150947,7.47385812 77.9527871,7.0944792 78.3142781,6.70654519 C79.0066174,7.30617855 79.6891573,7.89710127 80.4001622,8.5129115 C80.1481762,8.73036609 79.907234,8.9289995 79.6785801,9.14116549 C79.6134059,9.20182879 79.5446542,9.30075662 79.5441875,9.3825743 C79.5368768,10.6972568 79.5402989,12.0119393 79.5421654,13.3266219 C79.5421654,13.3423321 79.5546092,13.3580423 79.5847853,13.4289717 C80.3306327,12.9041564 81.0663696,12.3864963 81.826683,11.8514149 C81.8854797,11.9092784 81.9486317,11.9713416 82.0203389,12.0418043 C80.8660252,13.9396322 79.5281662,15.656248 77.9862297,17.251226 C77.5172557,16.5196889 77.0599478,15.8058841 76.5726193,15.0455708 C77.1742748,14.973397 77.1016344,14.5569979 77.0999233,14.1544425 C77.0919904,12.3410766 77.0965013,10.5277107 77.0965013,8.71434476 L77.0965013,8.37836342 Z" id="Fill-9" fill="#FFFFFF"></path>
                <path d="M50.5553136,25.7796767 L52.3711683,25.7796767 C52.0723626,25.0728715 51.7863119,24.3960869 51.4756847,23.6612833 C51.1512138,24.408064 50.8547414,25.0902928 50.5553136,25.7796767 M54.4713627,27.9546892 C55.12046,27.1138026 55.74047,26.3114916 56.3595467,25.5082473 C56.6401533,25.1442675 56.6395311,25.1433343 56.3592356,24.774377 C55.838309,24.0884151 55.3169157,23.4027643 54.7961447,22.7166469 C54.7586579,22.6673385 54.7253708,22.6152303 54.6559969,22.5152136 C55.1100383,22.5152136 55.5209933,22.5069696 55.9307038,22.5239242 C55.994167,22.526413 56.0612077,22.6380957 56.1123826,22.7094917 C56.523182,23.2814377 56.9305594,23.856028 57.3583134,24.4570613 C57.7655352,23.8792045 58.1646686,23.3307461 58.5420254,22.7679773 C58.6723738,22.5736992 58.8086329,22.4811488 59.0494195,22.5009033 C59.3357813,22.5242353 59.6257208,22.5063474 59.961391,22.5063474 C59.9030609,22.6024754 59.8739737,22.6620499 59.8346203,22.7136915 C59.2746514,23.449895 58.7190378,24.189365 58.1480251,24.9167024 C58.0181434,25.0823599 58.0131659,25.1878207 58.1438253,25.3558113 C58.7731682,26.1643442 59.3883562,26.9837653 60.0080551,27.7996089 C60.0512972,27.8565391 60.0909616,27.9162691 60.1659352,28.022041 C59.7154714,28.022041 59.304672,28.0301294 58.8949614,28.013797 C58.8300983,28.0111527 58.7593245,27.9061585 58.7087717,27.8358513 C58.2369979,27.1817766 57.7691128,26.5247464 57.2845842,25.846873 C57.2262541,25.9181134 57.1741459,25.9753547 57.1290373,26.037729 C56.6933504,26.6400067 56.2645075,27.2472618 55.818399,27.8417621 C55.7501139,27.9327571 55.6057663,28.0148858 55.4943948,28.0176857 C54.832076,28.0340181 54.168824,28.0193967 53.5061941,28.0301294 C53.3386701,28.0327737 53.2696072,27.968844 53.2136104,27.8230965 C53.0869952,27.4939592 52.952136,27.1669996 52.797989,26.8503061 C52.7587912,26.7700439 52.6349758,26.6829376 52.5486473,26.6813821 C51.813377,26.6681607 51.0776401,26.6680051 50.3425254,26.6813821 C50.2549525,26.6830932 50.1289595,26.7698883 50.0902283,26.8504616 C49.9376368,27.1680884 49.8063552,27.4962924 49.6806733,27.8257408 C49.6242098,27.9735104 49.5478362,28.0380623 49.3818677,28.0296628 C49.0923949,28.0153525 48.8018332,28.0257741 48.474407,28.0257741 C48.5069163,27.9294906 48.525893,27.8548281 48.5566913,27.7854541 C49.3064274,26.098859 50.0597411,24.4139748 50.8041887,22.7252019 C50.8779179,22.557989 50.9662685,22.4895484 51.1496584,22.5026143 C51.3755125,22.5186356 51.604322,22.5194134 51.8300206,22.5024588 C52.0244542,22.4878373 52.1159158,22.5623443 52.1924449,22.7395122 C52.9102939,24.4001311 53.6380979,26.0565502 54.363102,27.7142137 C54.3917227,27.7796989 54.4217432,27.844562 54.4713627,27.9546892" id="Fill-10" fill="#FFFFFF"></path>
                <path d="M38.3198222,6.8948814 C37.7002789,7.20286429 37.1382879,7.49264819 36.5668085,7.76205544 C36.2645809,7.90453641 35.9477318,8.01761902 35.6325937,8.13007944 C35.5520204,8.15870007 35.452626,8.13427921 35.3462319,8.09259263 C37.4481373,6.35575579 38.9560091,4.24498417 39.7365435,1.61826343 C40.7102672,1.94148992 41.661281,2.25725015 42.6542925,2.58685406 C42.4976568,2.82095217 42.3665307,3.04493973 42.2083395,3.24761735 C41.8849575,3.66183879 41.5835076,4.10328093 41.2044398,4.46119438 C40.8410822,4.80433087 40.7276885,5.16426643 40.7370213,5.65159491 C40.7664196,7.21048608 40.7479096,8.77015499 40.7479096,10.3295128 L40.7479096,10.6482284 L38.3198222,10.6482284 L38.3198222,6.8948814 Z" id="Fill-11" fill="#FFFFFF"></path>
                <path d="M50.1537692,11.1792034 C50.8405089,11.678509 51.5179157,12.1635042 52.1852119,12.6618766 C52.3499361,12.7847586 52.2958058,12.9746814 52.0940614,13.0252342 C51.9991778,13.0488773 51.8962058,13.0446775 51.7968113,13.0448331 C49.6905505,13.0457663 47.5842898,13.0454553 45.478029,13.0456108 C45.3694573,13.0456108 45.2608855,13.0454553 45.1174713,13.0454553 L45.1174713,17.5135404 L42.6719627,17.5135404 L42.6719627,13.0522993 L35.5300261,13.0522993 L35.5300261,12.6722982 L42.6627854,12.6722982 L42.6627854,10.8536437 L45.095228,10.8536437 L45.095228,12.6463219 C45.1997556,12.6545659 45.277529,12.6659208 45.3553025,12.6659208 C46.4175324,12.6671652 47.4799178,12.6721427 48.5419921,12.6596989 C48.6681407,12.658299 48.8247764,12.5911027 48.913127,12.5011966 C49.3324815,12.0756202 49.7328593,11.6315338 50.1537692,11.1792034" id="Fill-12" fill="#FFFFFF"></path>
                <path d="M87.348614,24.8476551 C87.7936337,24.8448553 88.2283873,24.8933859 88.6303205,24.6678429 C88.8984834,24.517429 89.004722,24.2834865 88.9712794,23.985303 C88.9393923,23.701741 88.7779346,23.5063741 88.5010611,23.4578435 C88.1243264,23.3918916 87.7407477,23.3638931 87.348614,23.3181623 L87.348614,24.8476551 Z M86.2650742,22.4638987 C87.1530915,22.511496 88.0372202,22.4965635 88.9011277,22.6220899 C89.7992556,22.7525937 90.2389867,23.4656208 90.0610411,24.3002855 C89.9544914,24.7997467 89.6060663,25.0851753 89.2215544,25.2544103 C89.6650186,26.1607822 90.1077051,27.0655986 90.5765235,28.0239231 C90.1641687,28.0239231 89.8070329,28.0323226 89.4511416,28.0155236 C89.3929671,28.0127237 89.3212599,27.9078851 89.2876618,27.8354003 C89.0669407,27.3595822 88.8549303,26.87972 88.6398089,26.4012577 C88.3585801,25.775648 88.0824843,25.6294339 87.338659,25.7334948 L87.338659,28.0103905 L86.2650742,28.0103905 L86.2650742,22.4638987 Z" id="Fill-13" fill="#FFFFFF"></path>
                <polygon id="Fill-14" fill="#FFFFFF" points="38.6948925 28.0130193 37.6082418 28.0130193 37.6082418 22.5267241 38.678249 22.5267241 38.678249 24.6927148 41.0490951 24.6927148 41.0490951 22.5299906 42.1525449 22.5299906 42.1525449 28.0019754 41.0623165 28.0019754 41.0623165 25.623352 38.6948925 25.623352"></polygon>
                <path d="M43.5199889,22.5207355 L44.6108394,22.5207355 C44.6108394,22.630085 44.6106839,22.7255908 44.6108394,22.8212522 C44.612706,23.8543948 44.6114616,24.8876929 44.61955,25.9208355 C44.6207944,26.0906927 44.6461485,26.2647497 44.6893906,26.4293184 C44.82005,26.9280018 45.1589867,27.1941425 45.6668474,27.217319 C46.3893628,27.250295 46.7914516,27.0577279 46.9592867,26.5228021 C47.0603922,26.2005089 47.1062785,25.8499061 47.1129671,25.5108138 C47.132566,24.5241798 47.1199667,23.536768 47.1199667,22.5280462 L48.1428432,22.5280462 C48.148754,22.6014644 48.1590201,22.6706827 48.1590201,22.7399011 C48.1597978,23.7459786 48.1641531,24.752056 48.1552869,25.7579779 C48.1532648,26.0006311 48.1282218,26.2477951 48.0765802,26.4848486 C47.80064,27.7528671 46.8238053,28.1891762 45.5640309,28.1117138 C44.742121,28.061161 44.0479151,27.751156 43.7296661,26.938579 C43.5879629,26.5769324 43.5243442,26.1664441 43.5131448,25.7755547 C43.4837465,24.7431898 43.502101,23.7095806 43.5024121,22.6762824 C43.5024121,22.6325737 43.512056,22.5888651 43.5199889,22.5207355" id="Fill-15" fill="#FFFFFF"></path>
                <path d="M83.7524938,22.5234731 L84.7683706,22.5234731 C84.7857919,22.5538048 84.8021243,22.5690484 84.8021243,22.5841364 C84.7982357,23.7255397 84.8273229,24.8683429 84.7800367,26.0080351 C84.7131515,27.6179457 83.6051908,28.2238009 82.1488051,28.1052742 C81.6494995,28.0645209 81.1879918,27.9249953 80.8101683,27.5771924 C80.3527048,27.1562824 80.1744481,26.6039353 80.16076,26.0134793 C80.134317,24.8812533 80.1512716,23.7479384 80.1512716,22.6149347 C80.1512716,22.5895806 80.1632487,22.5642264 80.1736704,22.5233176 L81.2441442,22.5233176 C81.2441442,22.7112183 81.2425887,22.8823199 81.2444553,23.0534215 C81.255188,24.068054 81.233567,25.0843975 81.2875418,26.0966969 C81.3394945,27.071976 82.2522438,27.5490384 83.1253286,27.0954636 C83.6048797,26.8462774 83.7293173,26.3860141 83.7392723,25.9027298 C83.7602711,24.8880973 83.750005,23.8726871 83.7524938,22.8577435 C83.7526493,22.7586601 83.7524938,22.6595767 83.7524938,22.5234731" id="Fill-16" fill="#FFFFFF"></path>
                <polygon id="Fill-17" fill="#FFFFFF" points="100.763524 22.5241575 104.179957 22.5241575 104.179957 23.3456008 101.88004 23.3456008 101.88004 24.7150358 104.045409 24.7150358 104.045409 25.5985423 101.883306 25.5985423 101.883306 27.1227465 104.263641 27.1227465 104.263641 28.0099861 100.763524 28.0099861"></polygon>
                <polygon id="Fill-18" fill="#FFFFFF" points="71.2188812 25.59974 71.2188812 27.1262774 73.5989045 27.1262774 73.5989045 28.0080729 70.1230532 28.0080729 70.1230532 22.5309549 73.5327971 22.5309549 73.5327971 23.3475762 71.2243253 23.3475762 71.2243253 24.7129671 73.391716 24.7129671 73.391716 25.59974"></polygon>
                <path d="M65.242831,27.7545781 C65.276118,27.4475285 65.3100272,27.1344125 65.3490695,26.7749436 C65.4857952,26.8321849 65.6038553,26.8847597 65.7242487,26.9315794 C66.221221,27.1250797 66.7287706,27.2443842 67.2627632,27.1113916 C67.5074385,27.0504172 67.7320482,26.9493117 67.7994,26.671816 C67.8659741,26.3974313 67.7001611,26.2098417 67.507594,26.0763824 C67.1664796,25.8401067 66.8071663,25.6277851 66.4445864,25.4247964 C66.0844953,25.2233631 65.7460252,25.0038865 65.5134826,24.6521949 C65.105483,24.0352958 65.2204322,23.2908483 65.8401311,22.8856486 C66.1188712,22.7033476 66.4613855,22.595398 66.7900561,22.517469 C67.3545359,22.3836987 68.2808177,22.4984923 68.7536804,22.7157913 C68.7154158,23.0043309 68.6763735,23.2984701 68.6438642,23.5437676 C68.1585579,23.4771935 67.6841398,23.39942 67.2066107,23.3538448 C67.0519971,23.3390678 66.8810511,23.3871318 66.7318816,23.4439064 C66.3215488,23.6000756 66.264152,23.9648331 66.6033998,24.2404622 C66.7287706,24.3421899 66.8748292,24.4198078 67.0154436,24.5016255 C67.4453753,24.7523671 67.8981723,24.9699772 68.3038387,25.2546281 C69.2220321,25.8989034 69.1937226,27.0457508 68.2657297,27.6774268 C67.9194823,27.9130804 67.530615,28.0149636 67.1159269,28.047784 C66.5268707,28.0946036 65.6803844,27.9712549 65.242831,27.7545781" id="Fill-19" fill="#FFFFFF"></path>
                <path d="M105.390205,26.812306 C105.763206,26.9219666 106.119098,27.0744025 106.488366,27.1207555 C106.809726,27.1611977 107.163906,27.1383323 107.471889,27.0423599 C107.921887,26.9022121 108.004326,26.4883018 107.647502,26.1804744 C107.335786,25.9116894 106.960762,25.7161669 106.614826,25.4867352 C106.336708,25.3022565 106.025459,25.151376 105.789183,24.9231887 C105.01627,24.1768746 105.214904,23.1211777 106.203715,22.6932682 C106.970095,22.3617977 107.763229,22.4328826 108.553096,22.6179834 C108.630714,22.6361824 108.705687,22.666203 108.797149,22.6956014 C108.758107,23.0004733 108.72062,23.2946125 108.679089,23.6203278 C108.56134,23.5794189 108.455101,23.5441098 108.349952,23.5058452 C107.869778,23.3314771 107.379339,23.2829465 106.880967,23.405673 C106.674245,23.4565369 106.478878,23.5456652 106.43968,23.7917405 C106.401104,24.0334604 106.541874,24.1911849 106.727286,24.3025565 C107.029669,24.4842353 107.347141,24.6411822 107.650457,24.8217721 C107.937752,24.9928737 108.238113,25.1533981 108.492433,25.366653 C109.211059,25.9689306 109.189594,26.9606977 108.465212,27.5592423 C108.127053,27.8386045 107.736164,27.9922849 107.299699,28.0311716 C106.564895,28.0966569 105.806915,27.9963291 105.283344,27.7589645 C105.318809,27.4455375 105.354896,27.1255775 105.390205,26.812306" id="Fill-20" fill="#FFFFFF"></path>
                <path d="M79.2597233,23.6221632 C78.8464352,23.5392567 78.4519682,23.4191745 78.0512794,23.3917982 C77.6963213,23.3675329 77.3206755,23.3961535 76.9780057,23.4891706 C76.0716338,23.7349347 75.5752836,24.5335126 75.6829221,25.4893484 C75.7849608,26.3974313 76.4381023,27.0163524 77.3772946,27.1106139 C77.9360191,27.1666107 78.4807444,27.11948 79.0138037,26.942001 C79.0803778,26.9197578 79.1491295,26.9043586 79.2746559,26.8698272 C79.2746559,27.1764102 79.2796334,27.452506 79.2695228,27.7281351 C79.2678118,27.7721549 79.2052819,27.8416844 79.1597067,27.8524171 C78.0105261,28.1255575 76.8692784,28.1714438 75.8031598,27.5718105 C74.8061041,27.0112194 74.450835,26.0938037 74.5464963,24.9968868 C74.6413799,23.9113249 75.2386801,23.1625221 76.2418021,22.7668107 C77.1833276,22.3955202 78.152696,22.4115416 79.1240864,22.6773713 C79.2777668,22.7195245 79.3294084,22.7862541 79.3101205,22.9428898 C79.2825887,23.1670329 79.2757447,23.3936648 79.2597233,23.6221632" id="Fill-21" fill="#FFFFFF"></path>
                <polygon id="Fill-22" fill="#FFFFFF" points="95.8744203 23.3912849 95.8744203 28.0077618 94.7645931 28.0077618 94.7645931 23.409795 93.1425499 23.409795 93.1425499 22.5317327 97.4896195 22.5317327 97.4896195 23.3912849"></polygon>
                <path d="M80.5208355,4.01199044 C79.8135637,4.6116238 79.1039587,5.21312372 78.3646442,5.83982223 C77.7489895,4.35217155 76.7895761,3.15446031 75.4300961,2.14698295 C75.6116194,2.08818621 75.7259463,2.01119049 75.829385,2.0234787 C77.5593778,2.23082273 79.1115805,2.87369813 80.4828821,3.9485273 C80.495948,3.9587934 80.5013921,3.97870341 80.5208355,4.01199044" id="Fill-23" fill="#FFFFFF"></path>
                <polygon id="Fill-24" fill="#FFFFFF" points="60.7955114 28.003422 61.8658297 28.003422 61.8658297 22.5202378 60.7955114 22.5202378"></polygon>
                <polygon id="Fill-25" fill="#FFFFFF" points="91.2917282 28.0054441 92.3724682 28.0054441 92.3724682 22.5326815 91.2917282 22.5326815"></polygon>
                <polygon id="Fill-26" fill="#FFFFFF" points="98.263652 28.0129104 99.3369257 28.0129104 99.3369257 22.5275485 98.263652 22.5275485"></polygon>
            </g>
        </g>
    </g>
</svg>