<?xml version="1.0" encoding="UTF-8"?>
<svg width="16px" height="16px" viewBox="0 0 16 16" version="1.1" xmlns="http://www.w3.org/2000/svg" xmlns:xlink="http://www.w3.org/1999/xlink">
    <title>菜单栏-应用管理</title>
    <g id="页面-1" stroke="none" stroke-width="1" fill="none" fill-rule="evenodd">
        <g id="1-1.数据管理-数据管理" transform="translate(-24.000000, -228.000000)" fill-rule="nonzero">
            <g id="编组-5备份-4" transform="translate(0.000000, 216.000000)">
                <g id="Report" transform="translate(24.000000, 12.000000)">
                    <rect id="矩形" fill="#D1D1D1" opacity="0" x="0" y="0" width="16" height="16"></rect>
                    <path d="M4.8765625,9.2421875 C4.925,9.290625 5.0046875,9.290625 5.053125,9.2421875 L6.64375,7.6515625 L7.9890625,8.9984375 C8.0375,9.046875 8.1171875,9.046875 8.165625,8.9984375 L11.7015625,5.459375 C11.75,5.4109375 11.75,5.33125 11.7015625,5.2828125 L11.1265625,4.7078125 C11.078125,4.659375 10.9984375,4.659375 10.95,4.7078125 L8.078125,7.5828125 L6.7328125,6.2359375 C6.684375,6.1875 6.6046875,6.1875 6.55625,6.2359375 L4.3015625,8.490625 C4.253125,8.5390625 4.253125,8.61875 4.3015625,8.6671875 L4.8765625,9.2421875 L4.8765625,9.2421875 Z M14.125,2.5 L8.5625,2.5 L8.5625,1.5 C8.5625,1.43125 8.50625,1.375 8.4375,1.375 L7.5625,1.375 C7.49375,1.375 7.4375,1.43125 7.4375,1.5 L7.4375,2.5 L1.875,2.5 C1.5984375,2.5 1.375,2.7234375 1.375,3 L1.375,11.125 C1.375,11.4015625 1.5984375,11.625 1.875,11.625 L7.44375,11.625 L7.44375,12.125 L4.86875,13.8140625 C4.8109375,13.8515625 4.7953125,13.928125 4.8328125,13.9859375 L5.30625,14.7234375 L5.30625,14.725 C5.34375,14.7828125 5.421875,14.7984375 5.4796875,14.7609375 L8,13.1078125 L10.5203125,14.7609375 C10.578125,14.7984375 10.65625,14.7828125 10.69375,14.725 L10.69375,14.7234375 L11.1671875,13.9859375 C11.2046875,13.928125 11.1875,13.8515625 11.13125,13.8140625 L8.5625,12.1296875 L8.5625,11.625 L14.125,11.625 C14.4015625,11.625 14.625,11.4015625 14.625,11.125 L14.625,3 C14.625,2.7234375 14.4015625,2.5 14.125,2.5 Z M13.5,10.5 L2.5,10.5 L2.5,3.625 L13.5,3.625 L13.5,10.5 Z" id="形状" fill="#F4F4F4"></path>
                </g>
            </g>
        </g>
    </g>
</svg>