<?xml version="1.0" encoding="UTF-8"?>
<svg width="16px" height="16px" viewBox="0 0 16 16" version="1.1" xmlns="http://www.w3.org/2000/svg" xmlns:xlink="http://www.w3.org/1999/xlink">
    <title>菜单栏-文档管理</title>
    <g id="页面-1" stroke="none" stroke-width="1" fill="none" fill-rule="evenodd">
        <g id="1-3-1.工作管理-合同维护" transform="translate(-24.000000, -308.000000)" fill="#FFFFFF" fill-rule="nonzero">
            <g id="编组-5备份-3" transform="translate(0.000000, 296.000000)">
                <g id="文档管理" transform="translate(24.000000, 12.000000)">
                    <rect id="矩形" opacity="0" x="0" y="0" width="16" height="16"></rect>
                    <path d="M10.0734375,10.45625 C10.05,10.4234375 10.0125,10.4046875 9.971875,10.4046875 L9.28125,10.4046875 C9.1796875,10.4046875 9.1203125,10.5203125 9.1796875,10.603125 L10.3328125,12.1984375 C10.3828125,12.2671875 10.484375,12.2671875 10.534375,12.1984375 L12.31875,9.7296875 C12.378125,9.646875 12.31875,9.53125 12.2171875,9.53125 L11.525,9.53125 C11.484375,9.53125 11.446875,9.55 11.4234375,9.5828125 L10.43125,10.9546875 L10.0734375,10.45625 Z M10.75,4.78125 L10.75,4.03125 C10.75,3.9625 10.69375,3.90625 10.625,3.90625 L4.625,3.90625 C4.55625,3.90625 4.5,3.9625 4.5,4.03125 L4.5,4.78125 C4.5,4.85 4.55625,4.90625 4.625,4.90625 L10.625,4.90625 C10.69375,4.90625 10.75,4.85 10.75,4.78125 Z M4.625,6.15625 C4.55625,6.15625 4.5,6.2125 4.5,6.28125 L4.5,7.03125 C4.5,7.1 4.55625,7.15625 4.625,7.15625 L7.5,7.15625 C7.56875,7.15625 7.625,7.1 7.625,7.03125 L7.625,6.28125 C7.625,6.2125 7.56875,6.15625 7.5,6.15625 L4.625,6.15625 Z M7.5,13.3125 L3.25,13.3125 L3.25,2.3125 L12,2.3125 L12,6.9375 C12,7.00625 12.05625,7.0625 12.125,7.0625 L13,7.0625 C13.06875,7.0625 13.125,7.00625 13.125,6.9375 L13.125,1.6875 C13.125,1.4109375 12.9015625,1.1875 12.625,1.1875 L2.625,1.1875 C2.3484375,1.1875 2.125,1.4109375 2.125,1.6875 L2.125,13.9375 C2.125,14.2140625 2.3484375,14.4375 2.625,14.4375 L7.5,14.4375 C7.56875,14.4375 7.625,14.38125 7.625,14.3125 L7.625,13.4375 C7.625,13.36875 7.56875,13.3125 7.5,13.3125 Z M13.790625,8.3 L10.790625,7.2578125 C10.7765625,7.253125 10.7640625,7.2515625 10.75,7.2515625 C10.7359375,7.2515625 10.721875,7.253125 10.709375,7.2578125 L7.709375,8.3 C7.659375,8.3171875 7.625,8.3640625 7.625,8.4171875 L7.625,12.340625 C7.625,12.3796875 7.6421875,12.415625 7.6734375,12.4390625 L10.6734375,14.7859375 C10.6953125,14.803125 10.7234375,14.8125 10.75,14.8125 C10.7765625,14.8125 10.8046875,14.803125 10.8265625,14.7859375 L13.8265625,12.4390625 C13.85625,12.415625 13.875,12.3796875 13.875,12.340625 L13.875,8.4171875 C13.875,8.3640625 13.840625,8.3171875 13.790625,8.3 Z M12.90625,11.9328125 L10.75,13.61875 L8.59375,11.9328125 L8.59375,9.015625 L10.75,8.265625 L12.90625,9.015625 L12.90625,11.9328125 Z" id="形状"></path>
                </g>
            </g>
        </g>
    </g>
</svg>