<?xml version="1.0" encoding="UTF-8"?>
<svg width="16px" height="16px" viewBox="0 0 16 16" version="1.1" xmlns="http://www.w3.org/2000/svg" xmlns:xlink="http://www.w3.org/1999/xlink">
    <title>菜单栏-数据管理</title>
    <g id="页面-1" stroke="none" stroke-width="1" fill="none" fill-rule="evenodd">
        <g id="1-1.数据管理-数据管理" transform="translate(-24.000000, -68.000000)" fill="#FFFFFF" fill-rule="nonzero">
            <g id="编组备份-6" transform="translate(0.000000, 56.000000)">
                <g id="solution" transform="translate(24.000000, 12.000000)">
                    <rect id="矩形" opacity="0" x="0" y="0" width="16" height="16"></rect>
                    <path d="M10.75,4.125 C10.75,4.05625 10.69375,4 10.625,4 L4.625,4 C4.55625,4 4.5,4.05625 4.5,4.125 L4.5,4.875 C4.5,4.94375 4.55625,5 4.625,5 L10.625,5 C10.69375,5 10.75,4.94375 10.75,4.875 L10.75,4.125 Z M10.625,6.25 L4.625,6.25 C4.55625,6.25 4.5,6.30625 4.5,6.375 L4.5,7.125 C4.5,7.19375 4.55625,7.25 4.625,7.25 L10.625,7.25 C10.69375,7.25 10.75,7.19375 10.75,7.125 L10.75,6.375 C10.75,6.30625 10.69375,6.25 10.625,6.25 Z M7.5,8.5 L4.625,8.5 C4.55625,8.5 4.5,8.55625 4.5,8.625 L4.5,9.375 C4.5,9.44375 4.55625,9.5 4.625,9.5 L7.5,9.5 C7.56875,9.5 7.625,9.44375 7.625,9.375 L7.625,8.625 C7.625,8.55625 7.56875,8.5 7.5,8.5 Z M6.75,13.3125 L3.25,13.3125 L3.25,2.3125 L12,2.3125 L12,7.6875 C12,7.75625 12.05625,7.8125 12.125,7.8125 L13,7.8125 C13.06875,7.8125 13.125,7.75625 13.125,7.6875 L13.125,1.6875 C13.125,1.4109375 12.9015625,1.1875 12.625,1.1875 L2.625,1.1875 C2.3484375,1.1875 2.125,1.4109375 2.125,1.6875 L2.125,13.9375 C2.125,14.2140625 2.3484375,14.4375 2.625,14.4375 L6.75,14.4375 C6.81875,14.4375 6.875,14.38125 6.875,14.3125 L6.875,13.4375 C6.875,13.36875 6.81875,13.3125 6.75,13.3125 Z M12.325,12.15 C12.778125,11.7390625 13.0625,11.1453125 13.0625,10.484375 C13.0625,9.2421875 12.0546875,8.234375 10.8125,8.234375 C9.5703125,8.234375 8.5625,9.2421875 8.5625,10.484375 C8.5625,11.1453125 8.846875,11.7390625 9.3,12.15 C8.409375,12.6578125 7.796875,13.5984375 7.75,14.6828125 C7.746875,14.753125 7.8046875,14.8125 7.875,14.8125 L8.6265625,14.8125 C8.6921875,14.8125 8.746875,14.7609375 8.7515625,14.69375 C8.8125,13.6125 9.7140625,12.75 10.8125,12.75 C11.9109375,12.75 12.8125,13.6125 12.8734375,14.69375 C12.8765625,14.759375 12.93125,14.8125 12.9984375,14.8125 L13.75,14.8125 C13.821875,14.8125 13.878125,14.753125 13.875,14.6828125 C13.8296875,13.596875 13.215625,12.6578125 12.325,12.15 Z M10.8125,9.234375 C11.503125,9.234375 12.0625,9.79375 12.0625,10.484375 C12.0625,11.175 11.503125,11.734375 10.8125,11.734375 C10.121875,11.734375 9.5625,11.175 9.5625,10.484375 C9.5625,9.79375 10.121875,9.234375 10.8125,9.234375 Z" id="形状"></path>
                </g>
            </g>
        </g>
    </g>
</svg>