<?xml version="1.0" encoding="UTF-8"?>
<svg width="16px" height="16px" viewBox="0 0 16 16" version="1.1" xmlns="http://www.w3.org/2000/svg" xmlns:xlink="http://www.w3.org/1999/xlink">
    <title>菜单栏-用户管理</title>
    <g id="页面-1" stroke="none" stroke-width="1" fill="none" fill-rule="evenodd">
        <g id="1-3-1.工作管理-合同维护" transform="translate(-24.000000, -388.000000)" fill-rule="nonzero">
            <g id="编组-5备份-5" transform="translate(0.000000, 376.000000)">
                <g id="用户管理" transform="translate(24.000000, 12.000000)">
                    <rect id="矩形" fill="#D1D1D1" opacity="0" x="0" y="0" width="16" height="16"></rect>
                    <path d="M12.878125,10.9359375 C12.48125,10.5390625 12.0234375,10.221875 11.528125,9.9921875 C12.2359375,9.41875 12.6875,8.54375 12.6875,7.5625 C12.6875,5.83125 11.24375,4.4109375 9.5125,4.4375 C7.8078125,4.4640625 6.434375,5.853125 6.434375,7.5625 C6.434375,8.54375 6.8875,9.41875 7.59375,9.9921875 C7.0984375,10.221875 6.6421875,10.5375 6.24375,10.9359375 C5.390625,11.790625 4.90625,12.91875 4.87496822,14.121875 C4.8734375,14.1921875 4.9296875,14.25 5,14.25 L5.875,14.25 C5.9421875,14.25 5.9984375,14.196875 6,14.1296875 C6.0296875,13.2234375 6.396875,12.375 7.0421875,11.73125 C7.715625,11.0578125 8.6109375,10.6875 9.5625,10.6875 C10.5140625,10.6875 11.409375,11.0578125 12.0828125,11.73125 C12.7265625,12.375 13.09375,13.2234375 13.125,14.1296875 C13.1265625,14.196875 13.1828125,14.25 13.25,14.25 L14.125,14.25 C14.1953125,14.25 14.2515625,14.1921875 14.2500318,14.121875 C14.21875,12.91875 13.734375,11.790625 12.878125,10.9359375 Z M9.5625,9.5625 C9.028125,9.5625 8.525,9.3546875 8.1484375,8.9765625 C7.765625,8.59375 7.55625,8.084375 7.5625,7.5421875 C7.5671875,7.0296875 7.771875,6.534375 8.1296875,6.1671875 C8.5046875,5.7828125 9.00625,5.56875 9.5421875,5.5625 C10.071875,5.5578125 10.5859375,5.7640625 10.9640625,6.134375 C11.3515625,6.5140625 11.5640625,7.021875 11.5640625,7.5625 C11.5640625,8.096875 11.35625,8.5984375 10.978125,8.9765625 C10.6,9.3546875 10.096875,9.5625 9.5625,9.5625 L9.5625,9.5625 Z M5.6484375,7.975 C5.634375,7.8390625 5.6265625,7.7015625 5.6265625,7.5625 C5.6265625,7.3140625 5.65,7.071875 5.69375,6.8359375 C5.7046875,6.7796875 5.675,6.721875 5.6234375,6.6984375 C5.4109375,6.603125 5.215625,6.471875 5.046875,6.30625 C4.64375,5.9125 4.4265625,5.3796875 4.4421875,4.815625 C4.45625,4.3140625 4.6578125,3.8375 5.009375,3.478125 C5.3953125,3.0828125 5.9140625,2.8671875 6.465625,2.8734375 C6.9640625,2.878125 7.4453125,3.0703125 7.809375,3.4109375 C7.9328125,3.5265625 8.0390625,3.6546875 8.128125,3.7921875 C8.159375,3.840625 8.2203125,3.8609375 8.2734375,3.8421875 C8.5484375,3.746875 8.8390625,3.6796875 9.1375,3.6484375 C9.225,3.6390625 9.275,3.5453125 9.2359375,3.4671875 C8.728125,2.4625 7.690625,1.76875 6.490625,1.75 C4.7578125,1.7234375 3.3140625,3.14375 3.3140625,4.8734375 C3.3140625,5.8546875 3.765625,6.7296875 4.4734375,7.303125 C3.9765625,7.5328125 3.51875,7.85 3.121875,8.246875 C2.265625,9.1015625 1.78125,10.2296875 1.74996822,11.434375 C1.7484375,11.5046875 1.8046875,11.5625 1.875,11.5625 L2.7515625,11.5625 C2.81875,11.5625 2.875,11.509375 2.8765625,11.4421875 C2.90625,10.5359375 3.2734375,9.6875 3.91875,9.04375 C4.378125,8.584375 4.940625,8.265625 5.5546875,8.1109375 C5.615625,8.0953125 5.65625,8.0375 5.6484375,7.975 L5.6484375,7.975 Z" id="形状" fill="#FFFFFF"></path>
                </g>
            </g>
        </g>
    </g>
</svg>