<svg width="16" height="16" viewBox="0 0 18 18" fill="none" xmlns="http://www.w3.org/2000/svg">
<path d="M8.4375 5.625H11.8125C12.1874 5.625 12.375 5.43744 12.375 5.0625C12.375 4.68756 12.1874 4.5 11.8125 4.5H8.4375C8.06256 4.5 7.875 4.68756 7.875 5.0625C7.875 5.43744 8.06256 5.625 8.4375 5.625Z" fill="#606266"/>
<path d="M15.592 1.28303C15.4865 1.17773 15.3517 1.125 15.1875 1.125H2.8125C2.64814 1.125 2.51332 1.17773 2.40803 1.28303C2.30273 1.3885 2.25 1.52332 2.25 1.6875V16.3125C2.25 16.4769 2.30256 16.6117 2.40803 16.717C2.5135 16.8223 2.64832 16.875 2.8125 16.875H15.1875C15.3519 16.875 15.4867 16.8224 15.592 16.717C15.6973 16.6115 15.75 16.4767 15.75 16.3125V1.6875C15.75 1.52314 15.6973 1.38832 15.592 1.28303ZM3.375 15.75V2.25H5.0625V15.75H3.375ZM14.625 15.75H6.1875V2.25H14.625V15.75Z" fill="#606266"/>
<path d="M8.4375 9H11.8125C12.1874 9 12.375 8.81244 12.375 8.4375C12.375 8.06256 12.1874 7.875 11.8125 7.875H8.4375C8.06256 7.875 7.875 8.06256 7.875 8.4375C7.875 8.81244 8.06256 9 8.4375 9ZM8.4375 12.375H11.8125C12.1874 12.375 12.375 12.1874 12.375 11.8125C12.375 11.4376 12.1874 11.25 11.8125 11.25H8.4375C8.06256 11.25 7.875 11.4376 7.875 11.8125C7.875 12.1874 8.06256 12.375 8.4375 12.375Z" fill="#606266"/>
</svg>
