<?xml version="1.0" encoding="UTF-8"?>
<svg width="16px" height="16px" viewBox="0 0 16 16" version="1.1" xmlns="http://www.w3.org/2000/svg" xmlns:xlink="http://www.w3.org/1999/xlink">
    <title>验证码ICON</title>
    <defs>
        <linearGradient x1="36.4521273%" y1="27.2534678%" x2="65.8448664%" y2="72.3652844%" id="linearGradient-1">
            <stop stop-color="#EFEFEF" offset="0%"></stop>
            <stop stop-color="#D1D1D1" offset="100%"></stop>
        </linearGradient>
        <filter x="-16.9%" y="-42.5%" width="133.7%" height="185.0%" filterUnits="objectBoundingBox" id="filter-2">
            <feGaussianBlur stdDeviation="50" in="SourceGraphic"></feGaussianBlur>
        </filter>
        <rect id="path-3" x="0" y="0" width="960" height="570" rx="8"></rect>
        <filter x="-6.9%" y="-10.4%" width="115.7%" height="126.5%" filterUnits="objectBoundingBox" id="filter-4">
            <feOffset dx="9" dy="16" in="SourceAlpha" result="shadowOffsetOuter1"></feOffset>
            <feGaussianBlur stdDeviation="22.5" in="shadowOffsetOuter1" result="shadowBlurOuter1"></feGaussianBlur>
            <feColorMatrix values="0 0 0 0 0.320114357   0 0 0 0 0.0904408455   0 0 0 0 0.0904408455  0 0 0 0.160074301 0" type="matrix" in="shadowBlurOuter1"></feColorMatrix>
        </filter>
    </defs>
    <g id="页面-1" stroke="none" stroke-width="1" fill="none" fill-rule="evenodd">
        <g id="登录" transform="translate(-816.000000, -503.000000)">
            <rect fill="#FFFFFF" x="0" y="0" width="1440" height="900"></rect>
            <g id="背景" fill="url(#linearGradient-1)">
                <rect id="矩形" x="0" y="0" width="1440" height="900"></rect>
            </g>
            <rect id="矩形" fill="#444444" opacity="0.470098586" filter="url(#filter-2)" x="292" y="430.5" width="889" height="353"></rect>
            <g id="编组-6" transform="translate(240.000000, 165.000000)">
                <g id="矩形" fill-rule="nonzero">
                    <use fill="black" fill-opacity="1" filter="url(#filter-4)" xlink:href="#path-3"></use>
                    <use fill="#FFFFFF" xlink:href="#path-3"></use>
                </g>
                <g id="组件" transform="translate(560.000000, 100.000000)">
                    <g id="编组-4" transform="translate(0.000000, 226.000000)">
                        <path d="M205.99249,0.5 C206.960537,0.5 207.836955,0.892683858 208.471636,1.52617899 C209.106797,2.16015412 209.5,3.03542673 209.5,4.00002553 L209.5,35.9999745 C209.5,36.9675504 209.109101,37.8435351 208.474363,38.4770879 C207.840816,39.1094516 206.96455,39.5 205.99249,39.5 L4.00750995,39.5 C3.03946275,39.5 2.16304481,39.1073161 1.52836435,38.473821 C0.893202997,37.8398459 0.5,36.9645733 0.5,35.9999745 L0.5,4.00002553 C0.5,3.0324496 0.890899091,2.15646488 1.5256373,1.52291211 C2.15918426,0.890548362 3.03544995,0.5 4.00750995,0.5 Z" id="Rectangle-26-Copy-23备份-2" stroke-opacity="0.15" stroke="#000000" fill="#FFFFFF"></path>
                        <g id="验证码ICON" transform="translate(16.000000, 12.000000)">
                            <g id="编组-14">
                                <rect id="矩形" x="0" y="0" width="16" height="16"></rect>
                            </g>
                            <path d="M1,9.023 L1,2.549 C1,2.392 1.134,2.265 1.299,2.262 L1.696,2.255 C1.711,2.255 3.265,2.225 4.868,1.601 C6.512,0.963 7.572,0.227 7.583,0.219 L7.817,0.056 C7.87,0.02 7.933,0 7.998,0 C8.062,0 8.125,0.019 8.178,0.055 L8.416,0.22 C8.427,0.227 9.487,0.962 11.13,1.601 C12.734,2.225 14.288,2.256 14.304,2.256 L14.698,2.262 C14.863,2.266 14.997,2.393 14.997,2.55 L15,9.023 C15,12.414 10.447,16 7.998,16 C5.552,16 1,12.414 1,9.023 Z M13.92,3.303 C13.319,3.259 12.053,3.106 10.738,2.594 C9.394,2.072 8.406,1.484 7.999,1.225 C7.593,1.483 6.604,2.071 5.261,2.594 C3.948,3.105 2.686,3.257 2.076,3.303 L2.076,9.023 C2.076,11.682 6.042,14.933 7.999,14.933 C8.757,14.933 10.235,14.328 11.688,12.999 C13.088,11.72 13.924,10.233 13.924,9.023 L13.92,3.303 Z M7.437,10.11 C7.338,10.211 7.201,10.268 7.058,10.2670129 C6.914,10.2670129 6.777,10.211 6.676,10.111 L5.061,8.512 C4.851,8.303 4.851,7.966 5.061,7.757 C5.161,7.657 5.298,7.601 5.442,7.601 C5.585,7.601 5.722,7.657 5.822,7.757 L7.058,8.979 L10.177,5.89 C10.277,5.79 10.414,5.733 10.557,5.733 C10.7,5.733 10.838,5.79 10.938,5.89 C11.149,6.098 11.149,6.436 10.938,6.644 L7.437,10.11 Z" id="形状" fill="#606266" fill-rule="nonzero"></path>
                        </g>
                    </g>
                </g>
            </g>
        </g>
    </g>
</svg>