<?xml version="1.0" encoding="UTF-8"?>
<svg width="16px" height="16px" viewBox="0 0 16 16" version="1.1" xmlns="http://www.w3.org/2000/svg" xmlns:xlink="http://www.w3.org/1999/xlink">
    <title>密码ICON</title>
    <g id="页面-1" stroke="none" stroke-width="1" fill="none" fill-rule="evenodd">
        <g id="登录" transform="translate(-816.000000, -431.000000)">
            <g id="编组-6" transform="translate(240.000000, 165.000000)">
                <g id="组件" transform="translate(560.000000, 100.000000)">
                    <g id="编组-3" transform="translate(0.000000, 154.000000)">
                        <g id="密码ICON" transform="translate(16.000000, 12.000000)">
                            <rect id="矩形" x="0" y="0" width="16" height="16"></rect>
                            <path d="M4.2665,5.4225 L4.2665,4.1785 C4.2665,2.1165 5.9375,0.4445 8.0005,0.4445 C10.0625,0.4445 11.7335,2.1155 11.7335,4.1785 L11.7335,5.4225 L12.8005,5.4225 C13.8795,5.4225 14.7555,6.2995 14.7555,7.3785 L14.7555,13.6005 C14.7555,14.6805 13.8815,15.5555 12.8005,15.5555 L3.2005,15.5555 C2.1205,15.5555 1.2445,14.6795 1.2445,13.6005 L1.2445,7.3785 C1.2445,6.2975 2.1185,5.4225 3.1995,5.4225 L4.2665,5.4225 Z M5.3335,5.4225 L10.6665,5.4225 L10.6665,4.1785 C10.6665,2.7045 9.4735,1.5115 8.0005,1.5115 C6.5265,1.5115 5.3335,2.7055 5.3335,4.1785 L5.3335,5.4225 Z M2.3114921,7.3785 L2.3114921,13.6005 C2.3114921,14.0905 2.7095,14.4894921 3.1995,14.4894921 L12.8005,14.4894921 C13.0355,14.4894921 13.2625,14.3965 13.4285,14.2295 C13.5955,14.0625 13.6895,13.8365 13.6885079,13.6005 L13.6885079,7.3785 C13.6885079,6.8885 13.2905,6.4894921 12.8005,6.4894921 L3.2005,6.4894921 C2.9645,6.4885 2.7375,6.5825 2.5715,6.7495 C2.4045,6.9165 2.3105,7.1425 2.3114921,7.3785 Z" id="形状" fill="#606266" fill-rule="nonzero"></path>
                        </g>
                    </g>
                </g>
            </g>
        </g>
    </g>
</svg>