<?xml version="1.0" encoding="UTF-8"?>
<svg width="16px" height="16px" viewBox="0 0 16 16" version="1.1" xmlns="http://www.w3.org/2000/svg" xmlns:xlink="http://www.w3.org/1999/xlink">
    <title>用户名ICON</title>
    <g id="页面-1" stroke="none" stroke-width="1" fill="none" fill-rule="evenodd">
        <g id="登录" transform="translate(-816.000000, -359.000000)" fill="#606266" fill-rule="nonzero">
            <g id="编组-6" transform="translate(240.000000, 165.000000)">
                <g id="组件" transform="translate(560.000000, 100.000000)">
                    <g id="编组-2" transform="translate(0.000000, 82.000000)">
                        <g id="用户名ICON" transform="translate(16.000000, 12.000000)">
                            <path d="M8.00106509,8.86118413 C5.41298607,8.86118413 3.30606506,6.873451 3.30606506,4.43209413 C3.30606506,1.98973589 5.41298607,0 8.00106509,0 C10.5891441,0 12.6960651,1.98773313 12.6960651,4.43009138 C12.6960651,6.87144824 10.5891441,8.86118413 8.00106509,8.86118413 Z M8.00106509,1.04043059 C6.02132241,1.04043059 4.40933708,2.56152209 4.40933708,4.43009138 C4.40933708,6.29866066 6.02132241,7.81975216 8.00106509,7.81975216 C9.98186759,7.81975216 11.5938529,6.29866066 11.5938529,4.43009138 C11.5938529,2.56152209 9.98186759,1.04043059 8.00106509,1.04043059 Z" id="形状"></path>
                            <path d="M1.82973661,16 C1.27651087,16 0.757199358,15.7676806 0.404279491,15.365127 C0.0693765542,14.9805983 -0.0683999703,14.4839154 0.0322828745,14.0042559 C0.775216288,10.4213293 4.12530547,7.82175491 8.00106509,7.82175491 C11.8747051,7.82175491 15.2269139,10.4213293 15.9677277,14.0042559 C16.0684105,14.4859181 15.930634,14.9805983 15.5946712,15.365127 C15.2449308,15.7706847 14.7234997,16 14.1723936,16 L1.82973661,16 Z M8.00106509,8.86118413 C4.65309554,8.86118413 1.75554925,11.1082739 1.11541832,14.2035299 C1.06454699,14.4418576 1.18218694,14.621104 1.2563743,14.7052197 C1.39839011,14.8694455 1.60717453,14.9625735 1.82973661,14.9625735 L14.1702739,14.9625735 C14.392836,14.9625735 14.6016204,14.8694455 14.7457559,14.7052197 C14.8199432,14.621104 14.9375832,14.4418576 14.8867119,14.2035299 C14.2465809,11.1082739 11.3490346,8.86118413 8.00106509,8.86118413 Z" id="形状"></path>
                        </g>
                    </g>
                </g>
            </g>
        </g>
    </g>
</svg>