<svg width="14" height="14" viewBox="0 0 14 14" fill="none" xmlns="http://www.w3.org/2000/svg">
<g id="&#229;&#136;&#160;&#233;&#153;&#164;">
<path id="Union" d="M2.1875 3.5H1.3125C1.18475 3.5 1.0799 3.45902 0.997937 3.37706C0.915979 3.2951 0.875 3.19025 0.875 3.0625C0.875 2.93475 0.915979 2.8299 0.997937 2.74794C1.0799 2.66598 1.18475 2.625 1.3125 2.625H4.8125V1.3125C4.8125 1.18475 4.85348 1.0799 4.93544 0.997937C5.0174 0.915979 5.12225 0.875 5.25 0.875H8.75C8.87775 0.875 8.9826 0.915979 9.06456 0.997937C9.14652 1.0799 9.1875 1.18475 9.1875 1.3125V2.625H12.6875C12.8152 2.625 12.9201 2.66598 13.0021 2.74794C13.084 2.8299 13.125 2.93475 13.125 3.0625C13.125 3.19025 13.084 3.2951 13.0021 3.37706C12.9201 3.45902 12.8152 3.5 12.6875 3.5H11.8125V12.6875C11.8125 12.8152 11.7715 12.9201 11.6896 13.0021C11.6076 13.084 11.5027 13.125 11.375 13.125H2.625C2.49725 13.125 2.3924 13.084 2.31044 13.0021C2.22848 12.9201 2.1875 12.8152 2.1875 12.6875V3.5ZM8.3125 2.625V1.75H5.6875V2.625H8.3125ZM3.0625 12.25H10.9375V3.5H3.0625V12.25ZM5.6875 10.5C5.55975 10.5 5.4549 10.459 5.37294 10.3771C5.29098 10.2951 5.25 10.1902 5.25 10.0625V5.6875C5.25 5.55975 5.29098 5.4549 5.37294 5.37294C5.4549 5.29098 5.55975 5.25 5.6875 5.25C5.81525 5.25 5.9201 5.29098 6.00206 5.37294C6.08402 5.4549 6.125 5.55975 6.125 5.6875V10.0625C6.125 10.1902 6.08402 10.2951 6.00206 10.3771C5.9201 10.459 5.81525 10.5 5.6875 10.5ZM8.3125 10.5C8.18475 10.5 8.0799 10.459 7.99794 10.3771C7.91598 10.2951 7.875 10.1902 7.875 10.0625V5.6875C7.875 5.55975 7.91598 5.4549 7.99794 5.37294C8.0799 5.29098 8.18475 5.25 8.3125 5.25C8.44025 5.25 8.5451 5.29098 8.62706 5.37294C8.70902 5.4549 8.75 5.55975 8.75 5.6875V10.0625C8.75 10.1902 8.70902 10.2951 8.62706 10.3771C8.5451 10.459 8.44025 10.5 8.3125 10.5Z" fill="#606266"/>
</g>
</svg>
