<?xml version="1.0" encoding="UTF-8"?>
<svg width="16px" height="16px" viewBox="0 0 16 16" version="1.1" xmlns="http://www.w3.org/2000/svg" xmlns:xlink="http://www.w3.org/1999/xlink">
    <title>按钮-批量下载</title>
    <g id="页面-1" stroke="none" stroke-width="1" fill="none" fill-rule="evenodd">
        <g id="3-1.文档管理-全部文档" transform="translate(-1319.000000, -216.000000)" fill="#FFFFFF" fill-rule="nonzero">
            <g id="编组-2备份" transform="translate(1306.000000, 208.000000)">
                <g id="download" transform="translate(13.000000, 8.000000)">
                    <rect id="矩形" opacity="0" x="0.000356813299" y="0" width="16" height="16"></rect>
                    <path d="M7.90191931,10.328125 C7.95191931,10.3921875 8.04879431,10.3921875 8.09879431,10.328125 L9.84879431,8.1140625 C9.91285681,8.0328125 9.85504431,7.9125 9.75035681,7.9125 L8.59254431,7.9125 L8.59254431,2.625 C8.59254431,2.55625 8.53629431,2.5 8.46754431,2.5 L7.53004431,2.5 C7.46129431,2.5 7.40504431,2.55625 7.40504431,2.625 L7.40504431,7.9109375 L6.25035681,7.9109375 C6.14566931,7.9109375 6.08785681,8.03125 6.15191931,8.1125 L7.90191931,10.328125 Z M13.7191068,9.78125 L12.7816068,9.78125 C12.7128568,9.78125 12.6566068,9.8375 12.6566068,9.90625 L12.6566068,12.3125 L3.34410681,12.3125 L3.34410681,9.90625 C3.34410681,9.8375 3.28785681,9.78125 3.21910681,9.78125 L2.28160681,9.78125 C2.21285681,9.78125 2.15660681,9.8375 2.15660681,9.90625 L2.15660681,13 C2.15660681,13.2765625 2.38004431,13.5 2.65660681,13.5 L13.3441068,13.5 C13.6206693,13.5 13.8441068,13.2765625 13.8441068,13 L13.8441068,9.90625 C13.8441068,9.8375 13.7878568,9.78125 13.7191068,9.78125 Z" id="形状"></path>
                </g>
            </g>
        </g>
    </g>
</svg>