<?xml version="1.0" encoding="UTF-8"?>
<svg width="16px" height="16px" viewBox="0 0 16 16" version="1.1" xmlns="http://www.w3.org/2000/svg" xmlns:xlink="http://www.w3.org/1999/xlink">
    <title>按钮-导出</title>
    <g id="页面-1" stroke="none" stroke-width="1" fill="none" fill-rule="evenodd">
        <g id="4-1.基础信息维护-功能域管理" transform="translate(-1347.000000, -170.000000)" fill="#DE2930" fill-rule="nonzero">
            <g id="编组-3备份-4" transform="translate(1334.000000, 162.000000)">
                <g id="export" transform="translate(13.000000, 8.000000)">
                    <rect id="矩形" opacity="0" x="0" y="0" width="16" height="16"></rect>
                    <path d="M13.8796875,11.834375 L13.0390625,11.834375 C12.9734375,11.834375 12.91875,11.8890625 12.91875,11.9546875 L12.91875,12.9203125 L3.0796875,12.9203125 L3.0796875,3.0796875 L12.9203125,3.0796875 L12.9203125,4.0453125 C12.9203125,4.1109375 12.975,4.165625 13.040625,4.165625 L13.88125,4.165625 C13.946875,4.165625 14.0015625,4.1125 14.0015625,4.0453125 L14.0015625,2.4796875 C14.0015625,2.2140625 13.7875,2 13.521875,2 L2.4796875,2 C2.2140625,2 2,2.2140625 2,2.4796875 L2,13.5203125 C2,13.7859375 2.2140625,14 2.4796875,14 L13.5203125,14 C13.7859375,14 14,13.7859375 14,13.5203125 L14,11.9546875 C14,11.8875 13.9453125,11.834375 13.8796875,11.834375 Z M14.1703125,7.9015625 L11.953125,6.1515625 C11.8703125,6.0859375 11.75,6.1453125 11.75,6.25 L11.75,7.4375 L6.84375,7.4375 C6.775,7.4375 6.71875,7.49375 6.71875,7.5625 L6.71875,8.4375 C6.71875,8.50625 6.775,8.5625 6.84375,8.5625 L11.75,8.5625 L11.75,9.75 C11.75,9.8546875 11.871875,9.9140625 11.953125,9.8484375 L14.1703125,8.0984375 C14.234375,8.0484375 14.234375,7.9515625 14.1703125,7.9015625 L14.1703125,7.9015625 Z" id="形状"></path>
                </g>
            </g>
        </g>
    </g>
</svg>