<svg width="12" height="14" viewBox="0 0 12 14" fill="none" xmlns="http://www.w3.org/2000/svg">
<g id="&#230;&#140;&#137;&#233;&#146;&#174;-&#229;&#134;&#187;&#231;&#187;&#147;">
<path id="Union" d="M2.0625 6.125C1.93475 6.125 1.8299 6.16598 1.74794 6.24794C1.66598 6.3299 1.625 6.43475 1.625 6.5625V11.8125C1.625 11.9403 1.66598 12.0451 1.74794 12.1271C1.8299 12.209 1.93475 12.25 2.0625 12.25H9.9375C10.0653 12.25 10.1701 12.209 10.2521 12.1271C10.334 12.0451 10.375 11.9403 10.375 11.8125V6.5625C10.375 6.43475 10.334 6.3299 10.2521 6.24794C10.1701 6.16598 10.0653 6.125 9.9375 6.125H2.0625ZM2.0625 5.25H9.9375C10.3111 5.25904 10.621 5.38665 10.8672 5.63281C11.1134 5.87898 11.241 6.18888 11.25 6.5625V11.8125C11.241 12.1861 11.1134 12.496 10.8672 12.7422C10.621 12.9884 10.3111 13.116 9.9375 13.125H2.0625C1.68888 13.116 1.37898 12.9884 1.13281 12.7422C0.886646 12.496 0.759042 12.1861 0.75 11.8125V6.5625C0.759042 6.18888 0.886646 5.87898 1.13281 5.63281C1.37898 5.38665 1.68888 5.25904 2.0625 5.25ZM6 7.4375C6.12775 7.4375 6.2326 7.47848 6.31456 7.56044C6.39652 7.6424 6.4375 7.74725 6.4375 7.875V10.5C6.4375 10.6278 6.39652 10.7326 6.31456 10.8146C6.2326 10.8965 6.12775 10.9375 6 10.9375C5.87225 10.9375 5.7674 10.8965 5.68544 10.8146C5.60348 10.7326 5.5625 10.6278 5.5625 10.5V7.875C5.5625 7.74725 5.60348 7.6424 5.68544 7.56044C5.7674 7.47848 5.87225 7.4375 6 7.4375ZM8.625 5.25V4.375C8.60663 3.62746 8.35142 3.00767 7.85938 2.51562C7.36733 2.02358 6.74754 1.76837 6 1.75C5.25246 1.76837 4.63267 2.02358 4.14062 2.51562C3.64858 3.00767 3.39337 3.62746 3.375 4.375V5.25H8.625ZM6 0.875C6.99342 0.902417 7.81825 1.24425 8.4745 1.9005C9.13075 2.55675 9.47258 3.38158 9.5 4.375V6.125H2.5V4.375C2.52742 3.38158 2.86925 2.55675 3.5255 1.9005C4.18175 1.24425 5.00658 0.902417 6 0.875Z" fill="#606266"/>
</g>
</svg>
