<svg width="12" height="12" viewBox="0 0 12 12" fill="none" xmlns="http://www.w3.org/2000/svg">
<g id="&#230;&#140;&#137;&#233;&#146;&#174;-&#233;&#135;&#141;&#231;&#189;&#174;&#229;&#175;&#134;&#231;&#160;&#129;">
<g id="Union">
<path fill-rule="evenodd" clip-rule="evenodd" d="M9.50455 9.86792C8.71602 10.5787 7.82106 11.016 6.81967 11.1798C5.81828 11.3437 4.8372 11.2206 3.87641 10.8107C2.91562 10.3734 2.15667 9.72652 1.59957 8.87C1.04247 8.01347 0.75928 7.05681 0.75 6H1.62002C1.62901 6.92008 1.88044 7.74454 2.37432 8.47337C2.8682 9.2022 3.54116 9.73513 4.3932 10.0721C5.24523 10.4001 6.09945 10.464 6.95583 10.2637C7.81222 10.0634 8.55304 9.62609 9.17829 8.95177H7.91416C7.78713 8.95177 7.68288 8.91081 7.60139 8.82889C7.51989 8.74697 7.47915 8.6445 7.47915 8.52147C7.47915 8.39844 7.51989 8.29597 7.60139 8.21405C7.68288 8.13213 7.78713 8.0865 7.91416 8.07717H9.93956C10.0573 8.08621 10.1571 8.13184 10.2388 8.21405C10.3206 8.29626 10.366 8.39655 10.375 8.51491V10.551C10.366 10.6787 10.3206 10.7835 10.2388 10.8654C10.1571 10.9473 10.0551 10.9883 9.93303 10.9883C9.81094 10.9883 9.709 10.9473 9.62722 10.8654C9.54544 10.7835 9.50469 10.6787 9.50498 10.551L9.50455 9.86792Z" fill="#606266"/>
<path fill-rule="evenodd" clip-rule="evenodd" d="M2.82171 3.04779H4.08584C4.21287 3.04779 4.31712 3.08875 4.39861 3.17067C4.48011 3.25259 4.52085 3.35506 4.52085 3.47809C4.52085 3.60112 4.48011 3.70359 4.39861 3.78551C4.31712 3.86743 4.21287 3.91306 4.08584 3.92239H2.06044C1.9427 3.91335 1.84294 3.86773 1.76116 3.78551C1.67938 3.7033 1.63399 3.60301 1.625 3.48465V1.44858C1.63399 1.32089 1.67938 1.21608 1.76116 1.13416C1.84294 1.05224 1.94488 1.01128 2.06697 1.01128C2.18906 1.01128 2.291 1.05224 2.37278 1.13416C2.45456 1.21608 2.49531 1.32089 2.49502 1.44858V2.13208C3.28354 1.42132 4.1785 0.984024 5.17989 0.820182C6.18128 0.65634 7.16686 0.779368 8.13664 1.18926C9.09743 1.62656 9.8542 2.27348 10.407 3.13C10.9597 3.98653 11.2407 4.94319 11.25 6H10.38C10.371 5.07992 10.1196 4.25546 9.62568 3.52663C9.1318 2.7978 8.45884 2.26488 7.6068 1.92786C6.75477 1.59989 5.90055 1.53604 5.04417 1.73633C4.18778 1.93661 3.44696 2.37347 2.82171 3.04779Z" fill="#606266"/>
</g>
</g>
</svg>
