<svg width="12" height="14" viewBox="0 0 12 14" fill="none" xmlns="http://www.w3.org/2000/svg">
<g id="&#230;&#140;&#137;&#233;&#146;&#174;-&#232;&#167;&#163;&#229;&#134;&#187;">
<path id="Union" d="M2.0625 6.12528C1.93475 6.12528 1.8299 6.16626 1.74794 6.24822C1.66598 6.33018 1.625 6.43503 1.625 6.56278V11.8128C1.625 11.9405 1.66598 12.0454 1.74794 12.1273C1.8299 12.2093 1.93475 12.2503 2.0625 12.2503H9.9375C10.0653 12.2503 10.1701 12.2093 10.2521 12.1273C10.334 12.0454 10.375 11.9405 10.375 11.8128V6.56278C10.375 6.43503 10.334 6.33018 10.2521 6.24822C10.1701 6.16626 10.0653 6.12528 9.9375 6.12528H2.0625ZM2.0625 5.25028H9.9375C10.3111 5.25932 10.621 5.38693 10.8672 5.6331C11.1134 5.87926 11.241 6.18916 11.25 6.56278V11.8128C11.241 12.1864 11.1134 12.4963 10.8672 12.7425C10.621 12.9886 10.3111 13.1162 9.9375 13.1253H2.0625C1.68888 13.1162 1.37898 12.9886 1.13281 12.7425C0.886646 12.4963 0.759042 12.1864 0.75 11.8128V6.56278C0.759042 6.18916 0.886646 5.87926 1.13281 5.6331C1.37898 5.38693 1.68888 5.25932 2.0625 5.25028ZM6 7.43778C6.12775 7.43778 6.2326 7.47876 6.31456 7.56072C6.39652 7.64268 6.4375 7.74753 6.4375 7.87528V10.5003C6.4375 10.628 6.39652 10.7329 6.31456 10.8148C6.2326 10.8968 6.12775 10.9378 6 10.9378C5.87225 10.9378 5.7674 10.8968 5.68544 10.8148C5.60348 10.7329 5.5625 10.628 5.5625 10.5003V7.87528C5.5625 7.74753 5.60348 7.64268 5.68544 7.56072C5.7674 7.47876 5.87225 7.43778 6 7.43778ZM8.43381 3.40447C8.18765 2.8121 7.79565 2.37007 7.25781 2.07841C6.71998 1.78674 6.13665 1.6956 5.50781 1.80497C4.87898 1.93272 4.36856 2.23124 3.97656 2.70053C3.58456 3.16982 3.38404 3.72807 3.375 4.37528V5.25028H8.1875L9.5 5.77003V6.12572H2.5V4.37572C2.51838 3.5188 2.78496 2.77593 3.29975 2.1471C3.81454 1.51826 4.49588 1.1127 5.34375 0.930408C6.18229 0.784574 6.95929 0.907658 7.67475 1.29966C8.39021 1.69166 8.91652 2.28418 9.25369 3.07722L8.43381 3.40447Z" fill="#606266"/>
</g>
</svg>
