<?xml version="1.0" encoding="UTF-8"?>
<svg width="16px" height="16px" viewBox="0 0 16 16" version="1.1" xmlns="http://www.w3.org/2000/svg" xmlns:xlink="http://www.w3.org/1999/xlink">
    <title>按钮-文档上传</title>
    <g id="页面-1" stroke="none" stroke-width="1" fill="none" fill-rule="evenodd">
        <g id="2-2-2.项目管理-过程文档-实施方案" transform="translate(-1319.000000, -140.000000)" fill="#FFFFFF" fill-rule="nonzero">
            <g id="编组-3" transform="translate(1306.000000, 132.000000)">
                <g id="upload备份" transform="translate(12.999762, 8.000000)">
                    <rect id="矩形" opacity="0" x="0" y="0" width="16" height="16"></rect>
                    <path d="M6.25,4.9640625 L7.4046875,4.9640625 L7.4046875,10.25 C7.4046875,10.31875 7.4609375,10.375 7.5296875,10.375 L8.4671875,10.375 C8.5359375,10.375 8.5921875,10.31875 8.5921875,10.25 L8.5921875,4.9640625 L9.75,4.9640625 C9.8546875,4.9640625 9.9125,4.84375 9.8484375,4.7625 L8.0984375,2.546875 C8.0484375,2.4828125 7.9515625,2.4828125 7.9015625,2.546875 L6.1515625,4.7609375 C6.0875,4.84375 6.1453125,4.9640625 6.25,4.9640625 L6.25,4.9640625 Z M13.71875,9.78125 L12.78125,9.78125 C12.7125,9.78125 12.65625,9.8375 12.65625,9.90625 L12.65625,12.3125 L3.34375,12.3125 L3.34375,9.90625 C3.34375,9.8375 3.2875,9.78125 3.21875,9.78125 L2.28125,9.78125 C2.2125,9.78125 2.15625,9.8375 2.15625,9.90625 L2.15625,13 C2.15625,13.2765625 2.3796875,13.5 2.65625,13.5 L13.34375,13.5 C13.6203125,13.5 13.84375,13.2765625 13.84375,13 L13.84375,9.90625 C13.84375,9.8375 13.7875,9.78125 13.71875,9.78125 Z" id="形状"></path>
                </g>
            </g>
        </g>
    </g>
</svg>