<?xml version="1.0" encoding="UTF-8"?>
<svg width="22px" height="22px" viewBox="0 0 22 22" version="1.1" xmlns="http://www.w3.org/2000/svg" xmlns:xlink="http://www.w3.org/1999/xlink">
    <title>弹窗-新增</title>
    <defs>
        <linearGradient x1="18.647148%" y1="11.9953069%" x2="76.9124804%" y2="91.8971033%" id="linearGradient-1">
            <stop stop-color="#F06C74" offset="0%"></stop>
            <stop stop-color="#DC3A40" offset="100%"></stop>
        </linearGradient>
    </defs>
    <g id="页面-1" stroke="none" stroke-width="1" fill="none" fill-rule="evenodd">
        <g id="5-1-2.用户管理-用户管理-新增用户弹窗" transform="translate(-510.000000, -319.000000)" fill="url(#linearGradient-1)">
            <g id="编组-7备份-2" transform="translate(480.000000, 299.000000)">
                <g id="新建/注册图标" transform="translate(29.999907, 20.000000)">
                    <path d="M11,0 C13.9174095,0 16.7152857,1.15892857 18.7781524,3.22182667 C20.8411238,5.28472476 22,8.0826219 22,11 C22,13.9174095 20.8411238,16.7152857 18.7781524,18.7781524 C16.7152857,20.8411238 13.9174095,22 11,22 C8.0826219,22 5.28472476,20.8411238 3.22182667,18.7781524 C1.15892857,16.7152857 0,13.9174095 0,11 C0,8.0826219 1.15892857,5.28472476 3.22182667,3.22182667 C5.28472476,1.15892857 8.0826219,0 11,0 Z M10.0571429,10.0571429 L6.44285714,10.0571429 C6.19279048,10.0571429 5.95298,10.1564571 5.77615238,10.3332952 C5.59933524,10.5101333 5.5,10.7499333 5.5,11 C5.5,11.2500667 5.59933524,11.4898667 5.77615238,11.6667048 C5.95298,11.8435429 6.19279048,11.9428571 6.44285714,11.9428571 L10.0571429,11.9428571 L10.0571429,15.5571429 C10.0571429,15.8072095 10.1564571,16.0470095 10.3332952,16.2238476 C10.5101333,16.4006857 10.7499333,16.5 11,16.5 C11.2500667,16.5 11.4898667,16.4006857 11.6667048,16.2238476 C11.8435429,16.0470095 11.9428571,15.8072095 11.9428571,15.5571429 L11.9428571,11.9428571 L15.5571429,11.9428571 C15.8072095,11.9428571 16.0470095,11.8435429 16.2238476,11.6667048 C16.4006857,11.4898667 16.5,11.2500667 16.5,11 C16.5,10.7499333 16.4006857,10.5101333 16.2238476,10.3332952 C16.0470095,10.1564571 15.8072095,10.0571429 15.5571429,10.0571429 L11.9428571,10.0571429 L11.9428571,6.44285714 C11.9428571,6.19279048 11.8435429,5.95298 11.6667048,5.77615238 C11.4898667,5.59933524 11.2500667,5.5 11,5.5 C10.7499333,5.5 10.5101333,5.59933524 10.3332952,5.77615238 C10.1564571,5.95298 10.0571429,6.19279048 10.0571429,6.44285714 L10.0571429,10.0571429 Z" id="形状"></path>
                </g>
            </g>
        </g>
    </g>
</svg>