<?xml version="1.0" encoding="UTF-8"?>
<svg width="22px" height="22px" viewBox="0 0 22 22" version="1.1" xmlns="http://www.w3.org/2000/svg" xmlns:xlink="http://www.w3.org/1999/xlink">
    <title>弹窗-警示</title>
    <defs>
        <linearGradient x1="16.2337619%" y1="16.2337619%" x2="75.9738095%" y2="86.3638095%" id="linearGradient-1">
            <stop stop-color="#F88484" offset="0%"></stop>
            <stop stop-color="#F25959" offset="95.9886%"></stop>
        </linearGradient>
    </defs>
    <g id="页面-1" stroke="none" stroke-width="1" fill="none" fill-rule="evenodd">
        <g id="2-2-3.项目管理-过程文档-全部文档-删除文档" transform="translate(-535.000000, -373.000000)" fill="url(#linearGradient-1)" fill-rule="nonzero">
            <g id="编组-3" transform="translate(505.000000, 353.000000)">
                <g id="弹窗红色" transform="translate(30.000000, 20.000000)">
                    <path d="M11,0 C14.110381,0.0817142857 16.7009333,1.15788095 18.7715524,3.2285 C20.8421714,5.29911905 21.9182857,7.88961905 22,11 C21.9182857,14.110381 20.8421714,16.7009333 18.7715524,18.7715524 C16.7009333,20.8421714 14.110381,21.9182857 11,22 C7.88961905,21.9182857 5.29911905,20.8421714 3.2285,18.7715524 C1.15788095,16.7009333 0.0817142857,14.110381 0,11 C0.0817142857,7.88961905 1.15788095,5.29911905 3.2285,3.2285 C5.29911905,1.15788095 7.88961905,0.0817142857 11,0 Z M11,4.71428571 C10.5741429,4.71428571 10.2221429,4.86985714 9.944,5.181 C9.66585714,5.49214286 9.54307619,5.86038095 9.57555238,6.28571429 L10.1404286,12.5714286 C10.1734286,12.8008571 10.2675048,12.9849238 10.4225524,13.1237333 C10.5776,13.2625429 10.7697333,13.3322095 10.9991619,13.3327375 C11.2285905,13.3333619 11.4208286,13.2635905 11.5758762,13.1237333 C11.7310286,12.9838762 11.825,12.7998095 11.858,12.5714286 L12.422981,6.28571429 C12.455981,5.85985714 12.3330952,5.49161905 12.0544286,5.181 C11.7757619,4.87038095 11.4237619,4.71480952 10.9984286,4.71428571 L11,4.71428571 Z M11,17.2857143 C11.360381,17.2694762 11.6592667,17.1466952 11.8965524,16.9172667 C12.1338381,16.6877333 12.2524286,16.3931429 12.2524286,16.0332857 C12.2524286,15.6734286 12.1338381,15.3745429 11.8965524,15.1367333 C11.6592667,14.8989238 11.360381,14.7803333 11,14.7808554 C10.639619,14.781381 10.3408381,14.8999714 10.1034476,15.1367333 C9.86626667,15.3734952 9.74757143,15.672381 9.74757143,16.0332857 C9.74757143,16.3941905 9.86626667,16.6888857 10.1034476,16.9172667 C10.3408381,17.1456476 10.639619,17.2684286 11,17.2857143 Z" id="形状"></path>
                </g>
            </g>
        </g>
    </g>
</svg>