<?xml version="1.0" encoding="UTF-8"?>
<svg width="22px" height="22px" viewBox="0 0 22 22" version="1.1" xmlns="http://www.w3.org/2000/svg" xmlns:xlink="http://www.w3.org/1999/xlink">
    <title>详情ICON</title>
    <defs>
        <linearGradient x1="18.647148%" y1="11.9953069%" x2="76.9124804%" y2="91.8971033%" id="linearGradient-1">
            <stop stop-color="#F06C74" offset="0%"></stop>
            <stop stop-color="#DC3A40" offset="100%"></stop>
        </linearGradient>
    </defs>
    <g id="页面-1" stroke="none" stroke-width="1" fill="none" fill-rule="evenodd">
        <g id="4-3.应用管理-应用管理-应用详情" transform="translate(-992.000000, -19.000000)" fill="url(#linearGradient-1)">
            <g id="详情图标" transform="translate(992.000000, 19.000000)">
                <path d="M11,0 C13.9174095,0 16.7152857,1.15892857 18.7781524,3.22182667 C20.8411238,5.28472476 22,8.0826219 22,11 C22,13.9174095 20.8411238,16.7152857 18.7781524,18.7781524 C16.7152857,20.8411238 13.9174095,22 11,22 C8.0826219,22 5.28472476,20.8411238 3.22182667,18.7781524 C1.15892857,16.7152857 0,13.9174095 0,11 C0,8.0826219 1.15892857,5.28472476 3.22182667,3.22182667 C5.28472476,1.15892857 8.0826219,0 11,0 Z M6.5915361,14.348055 C6.14027759,14.348055 5.77446029,14.7138723 5.77446029,15.1651309 C5.77446029,15.6163894 6.14027759,15.9822067 6.5915361,15.9822067 C7.04279461,15.9822067 7.40861191,15.6163894 7.40861191,15.1651309 C7.40861191,14.7138723 7.04279461,14.348055 6.5915361,14.348055 Z M15.6069294,14.5465205 L9.04770366,14.5465205 C8.7060546,14.5465205 8.42909331,14.8234818 8.42909331,15.1651309 C8.42909331,15.5067799 8.7060546,15.7837412 9.04770366,15.7837412 L15.6069294,15.7837412 C15.9485784,15.7837412 16.2255397,15.5067799 16.2255397,15.1651309 C16.2255397,14.8234818 15.9485784,14.5465205 15.6069294,14.5465205 Z M6.5915361,10.1829242 C6.14027759,10.1829242 5.77446029,10.5487415 5.77446029,11 C5.77446029,11.4512585 6.14027759,11.8170758 6.5915361,11.8170758 C7.04279461,11.8170758 7.40861191,11.4512585 7.40861191,11 C7.40861191,10.5487415 7.04279461,10.1829242 6.5915361,10.1829242 Z M15.6069294,10.3813897 L9.04770366,10.3813897 C8.7060546,10.3813897 8.42909331,10.6583509 8.42909331,11 C8.42909331,11.3416491 8.7060546,11.6186103 9.04770366,11.6186103 L15.6069294,11.6186103 C15.9485784,11.6186103 16.2255397,11.3416491 16.2255397,11 C16.2255397,10.6583509 15.9485784,10.3813897 15.6069294,10.3813897 Z M6.5915361,6.2162588 C6.14027759,6.2162588 5.77446029,6.5820761 5.77446029,7.0333346 C5.77446029,7.48459311 6.14027759,7.85041041 6.5915361,7.85041041 C7.04279461,7.85041041 7.40861191,7.48459311 7.40861191,7.0333346 C7.40861191,6.5820761 7.04279461,6.2162588 6.5915361,6.2162588 Z M15.6069294,6.41472425 L9.04770366,6.41472425 C8.7060546,6.41472425 8.42909331,6.69168554 8.42909331,7.0333346 C8.42909331,7.37498367 8.7060546,7.65194495 9.04770366,7.65194495 L15.6069294,7.65194495 C15.9485784,7.65194495 16.2255397,7.37498367 16.2255397,7.0333346 C16.2255397,6.69168554 15.9485784,6.41472425 15.6069294,6.41472425 Z" id="形状结合"></path>
            </g>
        </g>
    </g>
</svg>