<?xml version="1.0" encoding="UTF-8"?>
<svg width="22px" height="22px" viewBox="0 0 22 22" version="1.1" xmlns="http://www.w3.org/2000/svg" xmlns:xlink="http://www.w3.org/1999/xlink">
    <title>编辑ICON</title>
    <defs>
        <linearGradient x1="18.647148%" y1="11.9953069%" x2="76.9124804%" y2="91.8971033%" id="linearGradient-1">
            <stop stop-color="#F06C74" offset="0%"></stop>
            <stop stop-color="#DC3A40" offset="100%"></stop>
        </linearGradient>
    </defs>
    <g id="页面-1" stroke="none" stroke-width="1" fill="none" fill-rule="evenodd">
        <g id="5-1-3.用户管理-用户管理-重置密码弹窗" transform="translate(-510.000000, -348.000000)" fill="url(#linearGradient-1)">
            <g id="编组-7备份" transform="translate(480.000000, 328.000000)">
                <g id="编辑图标" transform="translate(30.000000, 20.000000)">
                    <path d="M11,0 C4.92485714,0 0,4.92485714 0,11 C0,17.0751429 4.92485714,22 11,22 C17.0751429,22 22,17.0751429 22,11 C22,4.92485714 17.0751429,0 11,0 Z M16.0360095,5.25328571 C16.1512476,5.27922476 16.2567429,5.33733619 16.3402381,5.42086286 C16.4238381,5.5044 16.4818762,5.60991619 16.5078571,5.72516476 C16.5338381,5.8403819 16.5265048,5.96060667 16.4868,6.07184286 C16.4470952,6.18307905 16.3765905,6.28075905 16.2835619,6.35350571 L9.23549524,13.4007238 C9.01172381,13.6134952 8.66081333,13.6134952 8.437,13.4007238 C8.35849143,13.2823429 8.3166181,13.1443714 8.3166181,13.0023143 C8.3166181,12.8603619 8.35849143,12.7214476 8.437,12.6030667 L15.4078571,5.47732952 C15.4806667,5.38436381 15.5783048,5.31395333 15.6894571,5.27429048 C15.8006095,5.2346381 15.9207714,5.22734667 16.0360095,5.25328571 Z M16.94,14.7586476 C16.939581,15.9670762 15.9596381,16.9464952 14.7512095,16.9464952 L7.23238476,16.9464952 C6.02395619,16.9460762 5.04450571,15.9661333 5.04450571,14.7577048 L5.04450571,7.23979143 C5.04450571,6.03136286 6.02395619,5.05147238 7.23238476,5.0510219 L11.4574952,5.0510219 C11.6175714,5.03238476 11.7780667,5.08267048 11.8988571,5.18907714 C11.9586762,5.24173048 12.0067619,5.30636857 12.0399714,5.37881143 C12.073181,5.45124381 12.090781,5.52985714 12.0917238,5.60954952 C12.100419,5.77971429 12.0404952,5.94628571 11.9251524,6.07178 C11.8680571,6.13390381 11.7991238,6.18404286 11.7225429,6.21927429 C11.6458571,6.25449524 11.5628857,6.27410667 11.4786571,6.27695619 L7.23306571,6.27695619 C6.70349429,6.28257143 6.27538476,6.71022 6.26932952,7.23979143 L6.26932952,14.7912286 C6.27538476,15.3208 6.70349429,15.7486476 7.23306571,15.7539905 L14.7622095,15.7539905 C15.2915714,15.7479143 15.7192095,15.3202762 15.7250762,14.7912286 L15.7250762,10.6322857 C15.7223524,10.4621524 15.7879333,10.2979905 15.9073619,10.1765714 C16.0267905,10.0553619 16.1898,9.98684762 16.3601429,9.98684762 L16.3601429,9.98506667 C16.677781,9.98506667 16.9177905,10.2814381 16.94,10.6747143 L16.94,14.7586476 Z" id="形状"></path>
                </g>
            </g>
        </g>
    </g>
</svg>