<svg width="22" height="22" viewBox="0 0 22 22" fill="none" xmlns="http://www.w3.org/2000/svg">
<g id="question">
<path id="Union" fill-rule="evenodd" clip-rule="evenodd" d="M21.5 11C21.5 16.799 16.799 21.5 11 21.5C5.20101 21.5 0.5 16.799 0.5 11C0.5 5.20101 5.20101 0.5 11 0.5C16.799 0.5 21.5 5.20101 21.5 11ZM11.7984 16.6946C11.5806 16.9124 11.2903 17.0212 11 17.0212C10.7097 17.0212 10.4194 16.8942 10.2016 16.6946C9.98387 16.4769 9.875 16.1866 9.875 15.8962C9.875 15.5878 10.002 15.3156 10.2016 15.0979C10.4194 14.8801 10.7097 14.7712 11 14.7712C11.2903 14.7712 11.5806 14.8983 11.7984 15.0979C12.0161 15.3156 12.125 15.6059 12.125 15.8962C12.125 16.2047 12.0161 16.495 11.7984 16.6946ZM11.945 11.9C12.08 11.72 12.26 11.57 12.47 11.495C13.85 10.955 14.75 9.74 14.72 8.375C14.735 7.46 14.33 6.605 13.595 5.96C12.89 5.345 11.96 5 10.985 5C10.01 5 9.08 5.345 8.375 5.96C7.745 6.5 7.37 7.205 7.265 7.97C7.265 8.01594 7.25937 8.11254 7.25501 8.18739C7.25225 8.23474 7.25 8.27338 7.25 8.285C7.265 8.465 7.34 8.63 7.445 8.75C7.58 8.9 7.775 9.005 8 9.005C8.225 9.005 8.48 8.9 8.57 8.765C8.675 8.66 8.75 8.165 8.75 8.135C8.9 7.22 9.845 6.515 10.985 6.515C12.23 6.515 13.235 7.355 13.235 8.39C13.235 9.125 12.71 9.8 11.915 10.1C11.42 10.295 11 10.625 10.7 11.06C10.4 11.495 10.235 12.035 10.235 12.575C10.235 12.575 10.205 13.01 10.385 13.25C10.535 13.445 10.745 13.58 11 13.58C11.255 13.58 11.465 13.43 11.615 13.25C11.75 13.055 11.75 12.545 11.75 12.545C11.75 12.32 11.81 12.095 11.945 11.9Z" fill="url(#paint0_linear_14922_206260)"/>
</g>
<defs>
<linearGradient id="paint0_linear_14922_206260" x1="4.45455" y1="3.36364" x2="15.9091" y2="19.1818" gradientUnits="userSpaceOnUse">
<stop stop-color="#FFB168"/>
<stop offset="1" stop-color="#F48A29"/>
</linearGradient>
</defs>
</svg>
