<?xml version="1.0" encoding="UTF-8"?>
<svg width="22px" height="22px" viewBox="0 0 22 22" version="1.1" xmlns="http://www.w3.org/2000/svg" xmlns:xlink="http://www.w3.org/1999/xlink">
    <title>弹窗-文件上传</title>
    <defs>
        <linearGradient x1="18.647148%" y1="11.9993565%" x2="76.9124804%" y2="91.892639%" id="linearGradient-1">
            <stop stop-color="#F06C74" offset="0%"></stop>
            <stop stop-color="#DC3A40" offset="100%"></stop>
        </linearGradient>
    </defs>
    <g id="页面-1" stroke="none" stroke-width="1" fill="none" fill-rule="evenodd">
        <g id="2-2-4.项目管理-过程文档-文件上传" transform="translate(-515.000000, -330.000000)">
            <g id="编组-7备份-2" transform="translate(484.999524, 310.000000)">
                <g id="编组-12" transform="translate(29.999524, 20.001172)">
                    <path d="M11,0 C4.92485714,0 0,4.92459475 0,10.9994139 C0,17.0742331 4.92485714,21.9988279 11,21.9988279 C17.0751429,21.9988279 22,17.0742331 22,10.9994139 C22,4.92459475 17.0751429,0 11,0 Z" id="路径备份" fill="url(#linearGradient-1)"></path>
                    <path d="M9.25,7.22072669 L10.4046875,7.22072669 L10.4046875,12.5066642 C10.4046875,12.5754142 10.4609375,12.6316642 10.5296875,12.6316642 L11.4671875,12.6316642 C11.5359375,12.6316642 11.5921875,12.5754142 11.5921875,12.5066642 L11.5921875,7.22072669 L12.75,7.22072669 C12.8546875,7.22072669 12.9125,7.10041419 12.8484375,7.01916419 L11.0984375,4.80353919 C11.0484375,4.73947669 10.9515625,4.73947669 10.9015625,4.80353919 L9.1515625,7.01760169 C9.0875,7.10041419 9.1453125,7.22072669 9.25,7.22072669 L9.25,7.22072669 Z M16.71875,12.0379142 L15.78125,12.0379142 C15.7125,12.0379142 15.65625,12.0941642 15.65625,12.1629142 L15.65625,14.5691642 L6.34375,14.5691642 L6.34375,12.1629142 C6.34375,12.0941642 6.2875,12.0379142 6.21875,12.0379142 L5.28125,12.0379142 C5.2125,12.0379142 5.15625,12.0941642 5.15625,12.1629142 L5.15625,15.2566642 C5.15625,15.5332267 5.3796875,15.7566642 5.65625,15.7566642 L16.34375,15.7566642 C16.6203125,15.7566642 16.84375,15.5332267 16.84375,15.2566642 L16.84375,12.1629142 C16.84375,12.0941642 16.7875,12.0379142 16.71875,12.0379142 Z" id="形状" fill="#FFFFFF" fill-rule="nonzero"></path>
                </g>
            </g>
        </g>
    </g>
</svg>