<svg width="22" height="22" viewBox="0 0 22 22" fill="none" xmlns="http://www.w3.org/2000/svg">
<g id="&#229;&#188;&#185;&#231;&#170;&#151;-&#230;&#179;&#168;&#233;&#148;&#128;/&#229;&#136;&#160;&#233;&#153;&#164;/&#230;&#143;&#144;&#231;&#164;&#186;">
<path id="Union" d="M11 0.5C13.969 0.578 16.4418 1.60525 18.4183 3.58175C20.3948 5.55825 21.422 8.031 21.5 11C21.422 13.969 20.3948 16.4418 18.4183 18.4183C16.4418 20.3948 13.969 21.422 11 21.5C8.031 21.422 5.55825 20.3948 3.58175 18.4183C1.60525 16.4418 0.578 13.969 0.5 11C0.578 8.031 1.60525 5.55825 3.58175 3.58175C5.55825 1.60525 8.031 0.578 11 0.5V0.5ZM11 5C10.5935 5 10.2575 5.1485 9.992 5.4455C9.7265 5.7425 9.60925 6.094 9.64025 6.5L10.1795 12.5C10.211 12.719 10.3008 12.8947 10.4488 13.0272C10.5968 13.1597 10.7802 13.2262 10.9992 13.2267C11.2182 13.2272 11.4017 13.1607 11.5497 13.0272C11.6977 12.8937 11.7875 12.718 11.819 12.5L12.3583 6.5C12.3898 6.0935 12.2725 5.742 12.0065 5.4455C11.7405 5.149 11.4045 5.0005 10.9985 5H11ZM11 17C11.344 16.9845 11.6293 16.8673 11.8558 16.6483C12.0823 16.4293 12.1955 16.148 12.1955 15.8045C12.1955 15.461 12.0823 15.1757 11.8558 14.9487C11.6293 14.7217 11.344 14.6085 11 14.609C10.656 14.6095 10.3708 14.7227 10.1443 14.9487C9.91775 15.1747 9.8045 15.46 9.8045 15.8045C9.8045 16.149 9.91775 16.4303 10.1443 16.6483C10.3708 16.8663 10.656 16.9835 11 17V17Z" fill="url(#paint0_linear_14920_204262)"/>
</g>
<defs>
<linearGradient id="paint0_linear_14920_204262" x1="3.90909" y1="3.90909" x2="16.4545" y2="18.6364" gradientUnits="userSpaceOnUse">
<stop stop-color="#F88484"/>
<stop offset="0.959886" stop-color="#F25959"/>
</linearGradient>
</defs>
</svg>
